<?xml version="1.0" encoding="UTF-8" standalone="no"?><!DOCTYPE svg PUBLIC "-//W3C//DTD SVG 1.1//EN" "http://www.w3.org/Graphics/SVG/1.1/DTD/svg11.dtd"><svg width="100%" height="100%" viewBox="0 0 5036 4672" version="1.1" xmlns="http://www.w3.org/2000/svg" xmlns:xlink="http://www.w3.org/1999/xlink" xml:space="preserve" xmlns:serif="http://www.serif.com/" style="fill-rule:evenodd;clip-rule:evenodd;stroke-linejoin:round;stroke-miterlimit:2;"><path d="M1067.37,1789.74c63,-78.925 103.001,-183.375 142.875,-269.649c79.166,-171.417 130.208,-352.105 170.75,-536.109c18.25,-82.829 34.667,-167.754 44.708,-253.229c-1.958,41.72 -1.083,83.221 -0.875,125.216c0.626,136.267 -3.499,278.659 -58.624,405.538c-0.709,1.68 1.708,3.171 2.499,1.467c64.458,-135.404 73.042,-281.742 74.959,-429.592c0.958,-71.113 18.916,-156.017 16.499,-234c29.459,63.362 52.167,129.796 65.459,198.829c59.334,308.663 -41,658.358 -250.333,894.787l-31,14.325c-59.126,27.143 -118,54.859 -176.917,82.417Zm268.875,-124.895c201.041,-233.471 290.334,-577.805 224.667,-876.371c-24.751,-112.576 -69.376,-219.517 -130.5,-316.475c-1.042,-10.592 -1.667,-21.221 -3.083,-31.784c-5.917,-44.128 -14.084,-89.637 -26.042,-134.129c157.292,-9.212 311.542,38.458 453.167,112.558c5.208,13.633 10.291,27.313 14.957,41.1c47.543,140.017 78.834,288.08 53.375,435.838c-0.291,1.68 2.251,2.412 2.584,0.712c25.541,-132.554 14.208,-265.12 -21.916,-394.812c-6.376,-22.996 -13.917,-45.617 -21.709,-68.125c49.792,27.538 97.709,58.283 143.75,90.571c-12.625,102.145 -32.291,204.204 -57.708,302.749c-38.625,149.664 -100,287.142 -171.167,423.788c-57.459,110.371 -121.625,225.513 -220.583,303.638l-239.792,110.742Zm301,-138.997c75.75,-74.461 131.375,-169.941 180.208,-263.204c81.125,-154.828 150.083,-308.104 187.625,-479.999c17.126,-78.434 33.876,-159.371 45.417,-240.796c26.917,19.558 53.333,39.438 78.583,59.775c2.334,1.878 4.501,3.838 6.792,5.729c9.666,45.533 16.041,91.917 18.166,138.95c10.085,224.621 -44.499,476.217 -207.541,636.974c-26.291,12.105 -52.667,24.014 -78.917,36.196l-230.333,106.375Zm356.125,-164.058c155.084,-161.512 205.208,-429.916 187.458,-640.516c-2.416,-28.6 -6.458,-56.988 -11.292,-85.222c58.126,52.084 106.667,108.813 146.376,173.951c-4.667,83.921 -12.292,167.72 -24.792,251.341c-0.75,5.179 7.125,7.459 7.958,2.193c12.584,-76.996 22.042,-154.389 29.292,-232.017c13.333,23.65 25.833,48.149 36.958,74.212c31.25,73.096 71.667,166.162 72.709,252.696l-258.458,117.967c-62.126,28.341 -124.167,56.924 -186.209,85.395Zm313.375,-72.442l48.542,-21.72c-1.833,10.3 -2.459,20.724 -1.583,31.258c-15.543,-4.05 -31.168,-7.242 -46.959,-9.538Zm70.834,16.325c-1.25,-17.07 0.583,-34.095 6.374,-50.875l42.167,-18.849c-0.708,2.025 -1.208,4.099 -2,6.108c-2.042,5.292 6.25,7.346 8.375,2.308c1.875,-4.399 3.292,-8.929 4.833,-13.424l81.876,-36.629l148.207,-66.997c26.125,1.938 52.334,5.513 78.292,10.996c-3.292,41.851 -2.041,84.396 -0.916,125.621c2.25,83.467 -1.209,162.646 -12.751,245.475c-0.166,0.987 1.125,1.367 1.501,0.413c26.958,-69.959 27.333,-146.667 29.375,-220.73c1.333,-48.917 4.791,-96.558 9.958,-144.204c11.917,3.133 23.917,6.125 35.625,10.046c4.791,56.9 -8.083,119.087 -6.292,176.701c2.959,94.907 6.292,188.862 -12.792,282.516c-0.083,0.563 0.709,0.795 0.875,0.237c33.459,-110.637 27.209,-221.267 34.626,-335.229c1.458,-22.729 18.791,-77.996 13.333,-113.258c16.334,6.583 32.166,14.212 47.625,22.449c36.083,69.142 55.917,152.601 70,215.343c17.25,76.982 25.959,154.411 23.625,233.345c-1.125,38.609 -1.208,84.866 -6.792,128.837l-98.541,84.192c-50.584,43.917 -101.167,87.812 -151.792,131.692c62.75,-119.637 34.083,-291.875 -27.291,-401.521c-51.709,-92.483 -127.543,-178.229 -219.917,-231.771c-29.334,-16.991 -62.667,-31.679 -97.583,-42.792Zm405.916,696.288c86.375,31.354 150.875,101.483 197.125,187.838c2.541,23.195 4.958,46.42 6.833,69.675c-129.916,-70.971 -300.791,-97.188 -444.125,-49.65l132.001,-113.821c36.249,-31.146 72.166,-62.65 108.166,-94.042Zm-335.041,289.642c40.124,-17.304 78.207,-39.079 120.625,-51.416c18.374,-5.351 36.874,-9.389 55.499,-12.671c-21.541,80.445 -1.666,177.574 1.625,257.312c0.126,2.441 3.75,2.45 3.792,-0c2.667,-88.5 7.375,-173.971 19.75,-261.137c20.958,-2.555 42.083,-3.967 63.583,-3.542c96.209,1.908 193.334,23.72 276.542,73.638c5.75,93.961 3.5,188.037 -16.541,280.866c-0.543,2.658 3.499,3.796 4.125,1.125c20.958,-90.492 28.541,-181.134 27.374,-272.567c10.542,6.767 20.917,14.091 31.25,21.655c29.042,94.466 42.708,192.891 44.376,272.945c2.166,102.325 -6.292,204.296 -15.625,306.121c-6.292,68.608 -14.751,140.821 -36.167,207.879l-58.917,93.784l-8.208,13.137c41.249,-186.884 -6.292,-388.221 -162,-519.233c-104.126,-87.58 -234.75,-143.18 -369.125,-163.097c-75.875,-11.241 -177.917,-20.587 -265.875,-1.866c12.792,-10.933 25.666,-21.758 38.416,-32.704l236.542,-202.521l8.959,-7.708Zm565.916,942.225l12.541,-19.671c80,-90.971 176.376,-168.1 275.668,-237.596c67.999,21.913 132.457,55.03 190.333,97.508c77.417,56.767 145.167,124.634 220.625,183.634c-140.709,-29.9 -285.834,-43.888 -426.417,-22.146c-89.666,13.866 -184.833,33.737 -269.375,67.605c-22.458,8.991 -45.917,19.503 -68.375,31.904l65,-101.238Zm426.25,23.996c155.792,1.208 313.084,33.104 460.959,77.32c117.874,35.246 233.375,87.813 334.874,157.659c84.208,57.916 167.084,133.667 193.874,232l-9.706,71.292l-27.46,203.041c-25.374,-57.333 -78.212,-106.625 -115.749,-152.333c-83.917,-102.209 -169.084,-190.292 -278.709,-264.709c-118.833,-80.666 -236,-165.712 -362.874,-233.566c-57.084,-30.53 -125.459,-67.942 -195.209,-90.704Zm994.334,432.854c-27.708,-78.042 -91.876,-144.542 -156.751,-194.542c-108.75,-83.929 -237.75,-147.879 -369.291,-187.549c-60.084,-18.126 -121.958,-34.88 -184.708,-48.592c-126.584,-117.043 -245.376,-238.447 -400.668,-298.059c101.084,-69.062 226.042,-135.875 352.959,-155.083c0.834,87.883 0.042,175.683 -6.583,263.109c-0.459,6.129 9.333,6.195 9.583,-0c3.458,-88.146 4.875,-176.222 6.042,-264.297c24.292,-3.233 48.583,-4.712 72.833,-4.054c47.375,24.062 93.5,51.021 139.166,77.938c104.335,61.487 201.834,132.087 294.496,210.041c74.796,62.896 239.296,172.4 286.088,287.409l-17.959,128.803l-25.207,184.876Zm45.292,-328.867c-11.792,-22.067 -27.002,-42.571 -41.168,-59.796c-63.749,-77.487 -142.088,-141.142 -217.416,-206.883c-104.75,-91.425 -213.458,-175.875 -333.667,-246.208c-65.833,-38.526 -131.458,-78.475 -201.542,-106.942c0.125,-9.166 0.251,-18.338 0.376,-27.509c30.874,-2.707 61.832,-3.707 92.833,-3.458c-2,5.709 5.75,10.542 8.875,4.746c0.083,-0.192 0.25,-0.35 0.375,-0.538c3.791,2.713 9.333,2.859 12.208,-2.416c0.209,-0.391 0.459,-0.745 0.708,-1.133c69.708,2.05 139.376,10.741 208.042,25.37c138.162,29.451 270.704,85.009 367.876,191.126c44.791,48.925 106.416,115.858 137.166,187.45l-14.25,100.024l-20.416,146.167Zm-63.875,-420.588c-102.464,-117.971 -231.631,-190.924 -383.751,-225.762c-69.755,-15.975 -141.416,-27.558 -213.333,-32.233c3.583,-5.384 7.374,-10.65 11.208,-15.85c50.125,-41.508 123.416,-64.329 181.959,-76.259c83.745,-17.05 172.791,-16.479 256.708,0.579c36.375,7.401 70.125,18.334 102.124,32.788c0.791,5.588 1.292,11.308 0.918,17.329c-0.127,2.342 3.291,2.225 3.582,0c0.625,-5.224 0.625,-10.241 0.417,-15.17c35.584,16.595 68.917,37.745 101.083,64.116c30.043,24.646 67.708,48.879 86.584,82.754l-21.917,152.096l-22.874,160.68c-27.375,-55.705 -70.459,-107.93 -102.708,-145.068Zm110.791,452.005l27.333,-168.672c27.084,-54.628 63.125,-103.441 112.083,-134.204c1.666,39.176 2.751,78.363 2.541,117.567c-0.04,5.9 9.044,5.888 9.168,0c0.791,-41.557 0.875,-83.057 0.708,-124.541c65.999,-36.621 148.291,-46.533 216.292,-6.9c39.5,23.025 65.084,52.129 88.709,85.104l0.207,22.096c0.584,87.512 2.21,175.021 3.251,262.533l0.582,35.55c-16.75,-25.225 -40.041,-47.717 -58.832,-63.883c-50.126,-43.125 -108.543,-78.83 -175.5,-86.388c-61.458,-6.942 -132.084,-2.312 -186.625,30.063c-15.168,9 -28.292,19.738 -39.917,31.675Zm76.416,-17.1c42.751,-18.221 90,-26.321 136.334,-22.271c82.332,7.183 205.542,68.405 248.541,154.571l3.209,194.375c-29.375,-113.417 -104.668,-219.458 -206.084,-277.434c-46.667,-26.674 -117.875,-51.383 -182,-49.241Zm387.626,-1874.22c-18.917,-44.634 -47.793,-87.775 -82.292,-120.538c6.417,0.63 12.917,1.717 19.499,3.592c21.958,6.254 50.376,14.854 64.209,33.516l-1.416,83.43Zm1.666,-99.033c-15.501,-13.413 -39.333,-22.434 -55.208,-27.676c-14.083,-4.67 -28.959,-6.932 -43.71,-7.116c-0.331,-0.267 -0.665,-0.458 -0.998,-0.721c-1.667,-59.604 -5.876,-119.071 -17.418,-176.387c3.292,-1.976 6.293,-4.288 9.792,-6.033c52.458,40.17 84.75,99.475 108.46,163.441l-0.918,54.492Zm0.999,-59.451c-21.458,-61.003 -49.373,-122.024 -97.624,-163.42c36.709,-14.946 78.376,-15.301 99.543,13.062c-0.544,50.121 -0.959,100.237 -1.919,150.358Zm2.126,-165.879c-26.416,-24.087 -78.833,-26.879 -118.957,-11.766c-2.918,-1.975 -5.709,-4.071 -8.751,-5.913c-0.043,-0.107 -0.083,-0.216 -0.083,-0.324l13.248,-91.251c7.001,-9.721 14.169,-19.32 21.167,-29.099c1.085,-1.517 2.251,-3.129 3.335,-4.684c3.707,-2.171 7.625,-4.041 12,-5.283c20.375,-5.842 62.957,-9.238 79.541,10.671c-0.125,14.508 -0.125,29.016 -0.291,43.529c-0.291,31.375 -0.875,62.745 -1.209,94.12Zm1.583,-149.795c-14.834,-17.351 -49.624,-23.159 -68.5,-21.233c-0.791,0.087 -1.459,0.399 -2.25,0.499c17.375,-21.275 37.917,-40.754 62.793,-48.987c3.042,4.883 5.75,10.196 8.207,15.967c-0.083,17.916 -0.124,35.837 -0.25,53.754Zm0.417,-90.096c-13.458,-16.192 -34.334,-27.479 -55.416,-31.537c-13.875,-2.672 -26.375,-1.501 -37.833,2.012l0.25,-1.596l1.292,-9.175c6.498,-14.925 14.416,-29.154 23.582,-42.629c1.499,0.392 3.001,0.517 4.5,1.116c13.501,5.504 25.791,13.621 35.708,24.367c11.584,12.459 20.709,26.363 28,41.317c-0.042,5.375 -0.083,10.749 -0.083,16.125Zm0.083,-21.758c-7.124,-15.955 -16.459,-30.963 -28.916,-42.88c-9.167,-8.762 -22.085,-18.221 -35.791,-23.808c0.081,-0.092 0.124,-0.196 0.165,-0.287c6.876,-9.459 14.292,-18.338 21.918,-27.059c14.833,-2.12 30.332,-0.941 43.042,5.705c-0.167,29.445 -0.293,58.882 -0.418,88.329Zm0.458,-93.701c-7.999,-8.17 -18.457,-13.05 -29.708,-15.433c10,-11.058 20,-22.162 29.625,-33.638l0.083,47.767l0,1.304Zm-0.083,-58.162c-17.291,10.884 -34.292,24.938 -49.957,41.13c-6.167,0.29 -12.167,1.403 -18.042,2.899c7.084,-20.041 13.415,-40.491 23.124,-59.533c3.542,-6.946 7.251,-13.659 11.167,-20.242c12.541,-1.479 25.875,3.096 33.667,12.555l0.041,23.191Zm-0.084,-41.913c-6.541,-4.875 -14.666,-9.137 -21.999,-12.062c6.708,-9.913 14.083,-19.425 21.959,-28.625l0.04,40.687Zm-0.04,-47.15c-10.834,9.013 -21.084,19.83 -30.583,32.163c-2.96,-0.787 -5.501,-1.213 -7.375,-1.171c-10.584,0.229 -20.042,4.059 -28.251,9.846l7.418,-52.346c3.249,-2.429 6.624,-4.675 10.915,-6.092c10.083,-3.316 21.126,-5.545 31.417,-1.608c5.584,2.15 11.167,5.25 16.416,7.525l0.043,11.683Zm-0.043,-29.6c-12.083,-12.649 -34.041,-14.537 -54.832,-9.349l2.791,-19.521l0.916,-6.562c6.626,-14.888 11.291,-30.726 18.168,-45.521c2.915,-6.201 6.458,-12.079 9.542,-18.2c0.458,-0.113 0.875,-0.121 1.332,-0.222c11.917,24.958 18.626,53.663 22.042,81.055l0.041,18.32Zm-0.083,-41.187c-3.707,-20.325 -9.707,-40.184 -18.374,-58.787c7.332,-0.934 13.875,0.45 18.249,6.091l0.041,6.871l0.084,45.825Zm-0.208,-66.504c-4.5,-2.842 -9.709,-4.642 -14.958,-4.642c-0.417,0 -0.874,0.112 -1.292,0.121c3.917,-7.325 7.333,-14.904 11.542,-22.041c0.582,-0.959 -0.834,-2.117 -1.583,-1.217c-6.001,7.383 -12.085,15.337 -17.918,23.692c-3.875,-7.113 -8.166,-13.963 -12.917,-20.555l6.126,-43.45c7.249,-2 18.166,-3.654 26.209,-2.817c0.207,1.967 0.875,3.742 0.915,5.784c0.043,0.721 1.209,0.95 1.335,0.174c0.291,-1.874 -0.083,-3.779 0.041,-5.666c0.708,0.13 1.334,0.279 1.959,0.462l0.541,70.155Zm-0.584,-78.292c-0.624,-0.183 -1.249,-0.371 -1.833,-0.525c-0.791,-15.975 -6.708,-31.529 -15.375,-45.066c4.918,-8.4 10.46,-16.396 16.667,-23.946l0.541,69.537Zm-0.541,-73.417c-7.499,6.909 -14.083,14.634 -19.875,22.976c-0.417,-0.592 -0.751,-1.25 -1.166,-1.829l11.375,-80.697l8.541,-62.474l0.458,31.883l0.667,90.141Zm-21.417,35.947c6.958,11.449 13.167,23.133 16.292,36.128c-0.834,-0.141 -1.709,-0.278 -2.334,-0.341c-5.875,-0.563 -13.791,-0.855 -20.833,0.612l4.541,-32.137c0.794,-1.421 1.542,-2.85 2.334,-4.262Zm-0.291,-306.667l-17.584,106.658c-2.832,1.929 -5.54,4.004 -8.417,5.858c-5.373,-13.413 -11.874,-28.32 -21.666,-38.9l47.667,-73.616Zm-41.459,5.987l-33.374,54.038c-0.251,-0.013 -0.417,-0.108 -0.668,-0.121c-2.291,-0.084 -2.541,2.17 -1.542,3.717l-29.708,48.041c-0.708,-0.946 -1.625,-1.838 -2.457,-2.754c5.249,-17.309 7.999,-35.171 8.833,-53l58.916,-49.921Zm-5.917,-71.388l-241.29,105.501l-6.042,2.637c5.792,-19.924 3.582,-44.125 -3.042,-60.858c-6.25,-15.717 -18.917,-31.346 -34.418,-43.075l284.792,-4.205Zm-315.499,11.401c22.917,8.675 45.75,17.67 53.5,45.187c5.332,19.009 6.207,39.242 0.417,57.787l-88.292,38.617c26.707,-42.796 41.958,-93.899 34.375,-141.591Zm-63.083,154.145l-7.709,3.359c9.418,-30.409 4.25,-66.758 -10.667,-94.45c-17.542,-32.488 -43.374,-53.767 -73.625,-67.505l138.749,-2.049c0.877,0.367 1.752,0.699 2.627,1.057c9.416,59.88 -15.127,110.371 -49.375,159.588Zm-30.626,-83.954c15.334,33.363 16.917,64.417 6.417,94.551l-38.875,17.195c-24.791,0.054 -60.25,-38.374 -88.292,-74.991c11.084,-34.809 18.083,-70.476 16.71,-108.117c43.29,8.574 84.873,29.588 104.04,71.362Zm-106.917,-71.837c0.917,35.017 -6.541,69.291 -18.124,102.908c-17.209,-22.938 -31.166,-44.171 -37.001,-53.212c-12.207,-18.875 -24.5,-36.538 -38.629,-51.026c26.88,-0.282 53.755,-0.583 80.629,-0.845c4.376,0.567 8.751,1.366 13.125,2.175Zm-121.249,-1.042c41.083,26.404 66.291,74.821 98.749,115.675c-17.999,48.205 -43.54,95.054 -64.957,140.559l-5.042,2.212c33.875,-91.187 -7.255,-198.767 -83.667,-257.967c18.292,-0.191 36.625,-0.283 54.917,-0.479Zm-70.041,13.488c76.125,53.396 112.54,158.316 87.874,249.783l-123.755,54.734c26.589,-40.134 41.296,-90.205 43.917,-135.667c2.63,-45.821 7.629,-114.725 -8.036,-168.85Zm-3.042,156.97c-3.916,62.629 -24.709,119.026 -64.209,161.426l-28.375,12.533c28.578,-72.021 -2.588,-155.334 -56,-214.571c3.75,-43.171 2.167,-86.366 -8.213,-127.834c46.338,-0.449 92.708,-0.728 139.046,-1.216c2.25,1.192 4.667,2.162 6.87,3.437c15.505,52.908 14.213,113.776 10.881,166.225Zm-158.797,-51.437c-18.079,-18.075 -38.121,-33.521 -59.125,-44.904c-13.542,-7.367 -27.417,-13.712 -41.37,-19.626c1.376,-18.649 2.334,-35.974 3.042,-51.612c30.208,-0.275 60.417,-0.504 90.625,-0.791c6.333,36.617 8.667,76.266 6.828,116.933Zm-101.579,-116.104c-2.207,16.104 -4.458,32.208 -6.588,48.358c-61.912,-25.046 -127.245,-37.65 -193.912,-47.012l140.334,-0.821c20.083,-0.088 40.12,-0.346 60.166,-0.525Zm-282.708,15.012c79.292,7.801 162.958,11.596 239.292,36.021c11.5,3.688 23.167,8.025 34.792,12.721c-4.875,35.645 -10.464,71.154 -19.709,105.862c-15.917,59.733 -61,178.717 -141.375,174.659c5.041,-47.18 4.75,-95.088 -6.209,-139.763c-24.166,-98.566 -92.999,-160.504 -177.791,-196.62c23.666,2.162 47.292,4.787 71,7.12Zm-104.958,11.642c87.583,25.225 164.458,68.062 191.333,170.4c12.292,46.783 14.5,96.141 10.875,144.825c-1.5,-0.354 -2.875,-0.404 -4.375,-0.841c-70.375,-20.579 -108.5,-98.372 -137.708,-159.918c-24.125,-50.87 -42.917,-102.116 -60.125,-154.466Zm-23.125,-6.242c21.5,78.846 58,156.659 99.917,224.446c29.749,48.117 67,100.2 124.457,109.771c-1.708,17.496 -4.125,34.867 -7.083,51.958c-6.833,39.105 -16.833,76.521 -35.583,111.509l-251.375,112.204c2.5,-27.462 3.042,-55.217 3.792,-82.592c2,-72.963 9.625,-143.663 19.833,-215.995c14.834,-104.742 29.626,-209.188 30.833,-314.818c5.043,1.192 10.167,2.25 15.209,3.517Zm-18.042,-4.162c-6.417,122.271 -29.791,242.246 -48,363.391c-12.958,86.317 -11.75,173.796 -23.958,259.733l-82.75,36.942c90.874,-97.774 100.541,-252.046 54.916,-381.708c-22.583,-64.15 -58.124,-125.145 -103.542,-176.775c4.542,-37.416 13.293,-73.817 29.918,-108.279c0.958,-2.004 1.374,-3.971 1.499,-5.871l110.001,-0.642c20.625,4.063 41.333,8.438 61.916,13.209Zm-203.459,-12.412c-13.166,29.837 -17.999,61.208 -19.333,93.17c-37.708,-38.258 -81.124,-70.291 -129.333,-92.558c49.542,-0.221 99.125,-0.334 148.666,-0.612Zm-243.999,1.004c40.916,8.791 81.042,21.012 118.25,39.45c-16.792,47.128 -10.626,99.124 -4.542,147.804c8.333,66.646 11.917,132.303 11.334,199.537c-0.501,57.816 32.041,259.175 -26.042,292.767c-0.751,0.433 -0.208,1.766 0.625,1.429c54.791,-22.367 37.416,-157.808 36.75,-202.359c-1.125,-78.282 7.125,-156.633 1.458,-234.874c-4.541,-62.492 -16.792,-131.675 3.208,-192.446c21.875,12.775 42.542,27.817 61.458,45.724c7.417,7.047 14.625,14.355 21.625,21.88c-0.04,25.375 0.834,50.879 -0.04,75.983c-3.543,100.03 12.582,196.796 -2.167,296.667c-0.209,1.395 1.666,1.996 2.125,0.596c35.582,-109.871 9.166,-235.675 17.583,-353.083c40.542,48.987 71.666,106.041 90.75,166.608c42.542,135.041 32.75,285.646 -69.501,379.116l-196.166,87.559c38.791,-92.492 34.5,-271.292 34.042,-312.991c-1.626,-144.434 -41.5,-351.117 -156.459,-459.268l38.417,-0.029c5.792,0.013 11.542,-0.07 17.292,-0.07Zm83.25,435.287c1.75,54.362 12.999,255.225 -32.459,344.184l-13.625,6.079l-143.916,64.649c21.083,-29.541 38.333,-61.049 51.166,-90.287c42.959,-97.859 63.792,-203.209 42.75,-309.367c-23.749,-119.746 -81.625,-233.95 -164.541,-323.829c-1.042,-1.125 -2.167,-2.191 -3.209,-3.312c24.834,-44.467 55.084,-85.538 92.168,-121.288c116.666,98.067 167.041,289.129 171.666,433.171Zm-180.125,-435.158c-36.375,34.683 -66.875,73.046 -92.417,114.279c-36.958,-38.679 -77.667,-74.958 -123,-102.729c-1.416,-3.85 -2.917,-7.683 -4.416,-11.517l21.624,0.108l198.209,-0.141Zm-241.667,25.05c11.417,54.537 29.958,107.566 35.25,163.671c5.75,61.091 5.583,123.116 4.958,184.454c-0.167,18.225 -0.916,36.399 -1.375,54.6c-9.292,50.779 -16.916,101.962 -23.082,153.296c-35.459,-50.238 -74.418,-96.184 -117.418,-138.589c-23.791,-101.428 -65.833,-199.133 -126.958,-283.482c-36.667,-50.638 -78.125,-104.609 -132.584,-137.121c-10.624,-6.341 -21.916,-11.771 -33.166,-17.304c-0.042,-2.201 -0.042,-4.408 -0.084,-6.608l337.251,1.674c6.499,2.355 12.833,5.092 19.208,7.75c27.916,135.55 -1.042,271.188 8.5,408.225c0.125,1.45 2.083,1.421 2.25,-0c12.958,-129.666 42.25,-264.458 19.458,-394.349c2.584,1.3 5.25,2.433 7.792,3.783Zm-220.417,314.25c-55.916,-43.051 -113.333,-84.604 -172.333,-123.734c-0.041,-58.712 -0.542,-117.387 -1.208,-175.97c1.416,0.795 2.875,1.441 4.292,2.262c58.5,34.063 105.125,87.504 143.249,142.9c46.667,67.825 82.959,142.813 106.584,221.663c-25.666,-23.138 -52.459,-45.471 -80.584,-67.121Zm-73.042,741.487c-2.666,-85.112 -40.625,-175.658 -70.041,-247.108c-14.125,-34.255 -30.084,-66.371 -47.875,-96.759c14.208,-165.104 18.333,-331.241 18.584,-497.158c35.957,24.038 71.458,48.629 105.916,74.196c53.459,39.608 106.667,80.083 155.916,124.604c5.834,23.342 10.876,46.909 14.376,70.775c31.958,216.534 -32.042,417.659 -176.876,571.45Zm45.75,-14.512c137.084,-142.076 188.709,-355.992 160.126,-551.484c-2.042,-14.071 -4.584,-28.1 -7.333,-42.091c35.5,35.308 68.207,73.37 96.458,115.591c3.833,5.696 7.5,11.5 11.249,17.234c-2.249,20.221 -4.291,40.454 -6.125,60.683c-8.916,99.921 -8.208,199.525 -28.083,297.813l-226.292,102.254Zm257.792,-43.717c-2.125,11.129 -3.958,22.333 -5.208,33.65c-15.792,-4.033 -31.792,-7.371 -47.833,-9.675l53.041,-23.975Zm-8.291,-69.021c15.124,-70.283 15.75,-143.258 19.625,-215.075c4.916,-32.621 9.541,-65.283 13.792,-97.996c23.457,37.542 45.666,75.921 65.333,115.575c18.875,38.067 46.875,82.58 58.166,126.859l-96.124,43.183l-60.792,27.454Zm132.208,150.921c-9.292,-4.496 -18.625,-8.859 -28.042,-13.038c-4.542,-2.012 -9.375,-3.916 -14.083,-5.878c-2.416,-5.313 -5.625,-9.884 -10.375,-12.876c-4.416,-2.808 -10.875,-0.92 -13.875,3.229c-11.458,-4.296 -23.292,-8.228 -35.25,-11.941c2.126,-18.021 4.541,-36.137 7.209,-54.271c39.791,19.387 70.374,53.771 94.416,94.775Zm13.834,-962.5c77.374,84.529 133.041,191.149 154.666,297.942c20.583,101.55 10.208,204.212 -29.958,299.875c-21.042,50.154 -46.792,91.287 -78.459,127.224l-25.833,11.621c-5.167,-20.791 -15.208,-40.42 -24.416,-61.987c-28.876,-67.829 -61.417,-134.013 -101,-196.308c-1.459,-2.259 -3.001,-4.367 -4.459,-6.604c7,-56.58 12.417,-113.325 16.917,-170.15c17.916,-101.942 44.333,-208.246 92.542,-301.613Zm-110.043,-94.725c36.625,23.688 70.334,52.575 101.042,84.691c-33.208,57.592 -57.583,120.225 -75.666,185.85c3.208,-91.712 -0.209,-182.762 -25.376,-270.541Zm124.376,1071.58c-24,-49.125 -55.584,-93.012 -100.292,-119.675l28,-12.641l62,-28.188c1.376,-0.416 2.792,-0.933 4.167,-1.338c24.833,-0.27 49.583,0.38 73.75,6.258c38.042,9.259 75.25,19.422 110.541,36.888c60.417,29.88 115.792,69.509 163,117.696c1.417,16.804 2.208,32.638 2.5,46.625c1.875,103.667 -4.291,228.204 -37.583,333.033l-92.792,78.258c44.084,-102.595 4.125,-249.745 -57.791,-330.999c-41.334,-54.25 -96.042,-94.129 -155.5,-125.917Zm90.833,424.25c2.209,-88.412 -8.583,-176.842 -33.291,-261.895c-12.917,-44.442 -27.751,-95.692 -48.834,-143.575c49.208,30.733 92.083,70.599 123.5,120.762c66.333,105.987 88.708,240.783 37.041,354.908l-88.333,75.463c8.042,-50.304 8.917,-104.371 9.917,-145.663Zm-22.75,227.442l7.416,-6.579c59.792,-25.3 123.751,-42.413 184.792,-62.875c24.042,-8.063 48.167,-16.013 72.459,-23.559c18.791,47.708 31.791,99.775 41.375,146.247c-71.501,-41.068 -153.709,-62.621 -236.876,-56.801c-16.875,1.179 -42.416,1.396 -69.166,3.567Zm310.292,1133.4c-64.917,46.313 -135.5,97.587 -199.459,155.479l99.376,-155.971c5.458,-5.887 10.874,-11.695 16.249,-17.462c28.375,3.958 56.334,10.092 83.834,17.954Zm-34.292,-207.421c-16.209,25.571 -32.333,51.188 -48.5,76.758c21.75,-45.237 40.583,-91.496 56.083,-138.75c-0.499,20.559 -2.75,41.255 -7.583,61.992Zm427.959,30.434c-132.334,13.162 -271.126,91.787 -371.917,161.712c-27.709,-9.529 -56.459,-17.316 -86.75,-22.537c36.374,-37.73 73.749,-72.35 121.125,-102.159c63.999,-40.241 132.708,-72.675 206.041,-91.925c8.417,-2.204 16.917,-3.588 25.334,-5.496c36.458,7.154 71.666,17.85 105.875,31.254c0.166,9.721 0.208,19.434 0.292,29.151Zm-1,-77.917c0.125,7.521 0.208,15.041 0.332,22.567c-15.666,-6.063 -31.624,-11.388 -47.833,-16.104c15.792,-2.409 31.625,-4.863 47.501,-6.463Zm6.582,-390.259c-4.249,39.617 -8.083,79.292 -8.791,119.209c-1.375,79.721 0.125,159.687 1.666,239.687c-52.374,4.513 -104.291,13.371 -155.083,29.059c-80.375,24.829 -156.666,60.554 -225.458,109.25c-11.167,7.9 -22.542,16.22 -33.875,24.817c29.292,-46.175 58.542,-92.372 87.75,-138.58c28.25,-27.583 56.542,-55.116 81.125,-86.287c46.416,-58.758 77.75,-126.975 126.083,-184.446c31.125,-36.987 62.125,-72.012 93.5,-106.133c10.959,-2.567 21.959,-4.779 33.083,-6.576Zm126.501,342.584c-4.209,4.608 -8.459,9.142 -12.167,14.221c-36.375,-1.584 -72.791,-1.501 -109.042,1.079c0.751,-61.35 1.542,-122.712 2.959,-184.113c1.374,-59.096 4.583,-117.833 10.333,-176.403c12.542,-1.542 25.166,-2.596 37.791,-3.218c-2.416,32.963 -4.791,65.929 -7.416,98.884c-0.083,1.167 1.667,1.116 1.792,0c4,-33.096 8.292,-66.167 12.458,-99.242c85.25,-3.108 172.166,13.812 250.584,45.279c43.333,17.384 84.619,38.205 124.874,60.971c-114.838,64.333 -238.083,133.946 -312.166,242.542Zm547.166,-81.825c-18.541,-6.842 -37.755,-12.421 -58.041,-16.18c-102.25,-18.907 -214.416,-25.829 -314.75,6.876c-37.042,12.079 -77.625,25.692 -113.75,45.271c74.541,-77.584 175.078,-134.134 268.661,-186.638c28.506,16.65 56.631,33.975 84.422,52.187c40.208,26.359 103.542,54.934 133.458,98.484Zm214.709,143.1c-16.125,-16.659 -34.999,-31.321 -50.624,-43.559c-48.501,-38.108 -97.543,-72.716 -153.209,-95.233c-18.626,-37.212 -60.126,-64.57 -94.334,-86.883c-39.38,-25.721 -78.255,-52.355 -118.125,-77.225c8.417,-4.754 16.833,-9.487 25.083,-14.204c76.376,-43.534 153.793,-82.805 234.292,-111.538c86.167,55.55 153.959,134.367 184.625,237.951l-14.25,97.291l-13.458,93.4Zm95.667,349.075c-46.458,32.658 -81.501,76.121 -108.083,125.254l4.166,-26.025c13.416,-47.187 24.707,-95.012 41.126,-141.279c17.374,-14.421 37.333,-26.721 58.707,-36.405c1.626,26.147 2.875,52.3 4.084,78.455Zm6.207,-1039.62l-2.665,17.558l-27.543,184.242c-0.916,-0.004 -1.874,0.059 -2.792,0.059c-16.166,-135.93 -62.207,-265.446 -128.165,-387.442c68.75,47.763 129.374,112.233 161.165,185.583Zm-184.542,-227.187c-1.833,-3.125 -3.583,-6.288 -5.416,-9.404c-3.833,-6.409 -7.666,-12.934 -11.499,-19.422c48.499,-21.05 98.458,-38.049 148.084,-45.953c1.916,49.366 5.373,99.162 18.914,144.545c0.584,1.933 3.459,1.129 3.001,-0.829c-10.125,-45.254 -14.79,-94.845 -16.874,-144.625c31.832,-4.667 63.542,-5.492 94.582,-0.892l-4.915,31.696l-37.667,247.787c-35.917,-81.537 -109.751,-154.179 -188.21,-202.903Zm188.377,1053.36c-0.543,-23.375 -1.084,-46.746 -1.668,-70.146c-1.75,-69.324 1.292,-139.567 3.084,-209.613c23.791,-51.387 58.624,-92.32 124.709,-94.708c22.249,-0.808 42.415,0.908 60.748,4.809c22.252,26.129 41.042,54.417 53.876,83.524c22.292,50.505 37.874,103.151 56.374,155.043c2.46,6.97 5.168,13.762 8.002,20.462l0.665,150.588c-4.958,-5.109 -9.873,-9.647 -14.583,-13.434c-61.041,-49.275 -139.457,-61.413 -215.959,-53.75c-28.833,2.887 -53.583,12.737 -75.248,27.225Zm308.874,-975.096c-0.457,27.513 -0.917,55.026 -1.334,82.537c-12.457,-19.666 -29.791,-36.458 -49.624,-49.682c15.458,-13.226 32.249,-24.543 50.958,-32.855Zm1.583,-98.387l-1.292,79.821c-0.04,2.679 -0.083,5.357 -0.124,8.037c-23.333,7.142 -44.083,20.054 -63.167,35.838c-23.167,-12.997 -49.042,-21.113 -74.75,-22.496c-24.916,-1.334 -59.334,2.262 -87.376,13.962c-0.083,-1.366 -0.04,-2.733 -0.083,-4.1l18.833,-126.017l12.667,-87.129c21.21,-19.495 46.501,-31.954 76.292,-36.221c24.042,18.621 43.709,39.201 62.293,63.933c18.833,25.03 39.707,48.664 56.707,74.372Zm1.833,-112.18l-1.458,89.167c-19.082,-28.82 -42.041,-55.816 -60.999,-82.088c-9.835,-13.591 -20.125,-25.187 -31.042,-35.016c31.166,0.5 70.542,5.458 93.499,27.937Zm-112.791,-310.008c-13.834,1.696 -27.166,5.65 -39.459,11.755l4.584,-31.725c11.959,5.157 23.625,11.908 34.875,19.97Zm-0.376,-14.55c-10.581,-7.163 -21.415,-13.629 -32.583,-18.425l15.752,-108.317c5.291,42.263 11.165,84.484 16.831,126.742Zm2.25,-634.179l-13.749,86.359c-0.207,-0.442 -0.458,-0.871 -0.667,-1.314c-16.124,-34.741 -30.583,-68.549 -54.334,-99.028c-13.208,-16.971 -29.915,-33.788 -48.541,-48.421c2.917,-1.004 5.749,-2.362 8.75,-3.288c41.042,13.054 79.291,36.704 108.541,65.692Zm1.335,-8.317c-22.459,-29.163 -53.084,-50.396 -87.71,-63.433c31.083,-7.433 63.959,-10.367 99.042,-7.942l-11.332,71.375Zm60.917,216.179c22.04,2.438 35.791,11.051 45.667,23.813c-29.293,6.042 -55.626,37.008 -72.876,58.221c-8.708,2.496 -16.875,5.717 -23.999,10.221l12.04,-82.83c10.75,-7.103 23.293,-11.178 39.168,-9.425Zm-26.876,-429.483l-9.792,61.159c-12.834,-19.104 -32.959,-34.705 -53.709,-42.367c-35.541,-13.112 -76.499,-10.042 -112.958,4.037c-9.541,0.8 -18.833,2.422 -27.417,5.551l34.001,-53.051l18.5,-28.575c0.917,-0.145 1.709,0.179 2.708,-0.375c39.459,-21.967 119.501,6.029 148.126,50.171c0.208,1.146 0.334,2.3 0.541,3.45Zm18.083,-112.758l-13.582,84.908c-4.084,-11.658 -8.417,-22.279 -11.585,-30.145c-14.123,-35.325 -37.541,-73.447 -67.959,-99.484c33.417,-1.396 76.836,16.141 93.126,44.721Zm-64.958,-207.192c-1.041,13.246 -2.917,26.642 -6,39.937c-7.208,-5.562 -16.459,-10.116 -26.041,-12.774l32.041,-27.163Zm-209.666,51.958c5.457,-7.666 11.332,-15.245 17.709,-22.72l29.998,-14.013l199.583,-93.137l-196.791,175.216c-4.582,-15.42 -19.084,-28.996 -32.542,-36.395c-4.749,-2.621 -10.999,-5.817 -17.957,-8.951Zm-9.334,13.73c2.791,0.863 5.709,1.563 8.457,2.637c21.294,8.317 33.293,19.7 42.168,37.187l-88.125,78.447c-0.291,-1.071 -0.875,-2.117 -1.249,-3.18c4.083,-43.225 16.917,-80.554 38.749,-115.091Zm-115.167,47.025c4.583,-7.825 9.334,-15.858 14.333,-23.834l2.333,-1.079l61.835,-28.854c4.207,0.167 8.417,0.271 12.291,0.946c4.292,0.729 8.5,1.65 12.75,2.596c-18.834,33.983 -27.625,76.237 -29.208,112.995c-11.584,-25.445 -41.876,-48.979 -74.334,-62.77Zm-11.125,19.887c7.001,2.133 13.999,4.779 21.126,8.229c20.791,10.097 49.25,27.867 58.124,51.621l-69.501,61.85c-17.165,15.121 -34.415,30.23 -51.623,45.338c5.499,-35.697 7.916,-71.825 17.665,-106.896c6.293,-22.513 14.584,-41.725 24.209,-60.142Zm-296.171,104.737l30.796,-14.208c71.959,-10.679 215.668,0.809 203.168,94.371c-22.709,19.938 -45.418,39.875 -68.125,59.834c-55.876,-47.692 -123.625,-66.071 -194.214,-71.422c7.625,-23.966 16.296,-46.75 28.375,-68.575Zm-22.369,10.325c-7.459,18.355 -13.084,37.767 -18.126,57.296c-27.624,-1.508 -55.625,-1.291 -83.417,0.063c-4.38,-1.533 -8.713,-3.171 -13.167,-4.409l114.71,-52.95Zm-134.626,-222.216c15.245,17.429 27.828,37.054 35.708,59.716c16.376,47.13 21.458,98.014 7.709,145.275l-52.541,23.221l-73.668,32.818c28.375,-42.064 46.291,-92.455 59.412,-142.438c10.046,-38.158 18.75,-78.221 23.38,-118.592Zm-320.959,367.125c12.417,-28.312 21.25,-57.558 23.5,-67.162c6.584,-27.755 12.292,-56.946 16.043,-86.55c1.624,0.046 3.125,0.474 4.791,0.45c123.292,-1.613 155.458,-164.792 165.995,-289.184c36.963,15.834 72.88,36.917 100.958,65.05c-7.625,105.408 -43.202,214.096 -108.162,286.912l-203.125,90.484Zm-128.291,122.962l138.542,-63.383c50.916,0.579 106.707,23.937 150.541,57.279c12.5,109.422 -16.125,240.45 -43.291,323.892l-39.042,33.3c-9.542,8.17 -19.167,16.217 -28.708,24.354c8.083,-90.125 -27.334,-173.895 -102.542,-228.425c-3.75,-2.7 -7.833,-5.209 -11.751,-7.813c-11.124,-38.949 -30.416,-104.191 -63.749,-139.204Zm-147.917,67.651l124.542,-56.971c31.874,25.87 53.417,70.445 66.666,115.799c-55.333,-31.983 -124.541,-54.679 -191.208,-58.828Zm-325.25,148.775l290.625,-132.942c4.083,-0.092 8.125,-0.413 12.25,-0.401c2.709,1.485 6.083,1.696 8.917,0.193c75.541,1.67 152.708,21.871 211.167,68.291c5.832,25.675 9.124,50.455 10.166,70.871c4.041,82.733 4.25,193.533 -27.083,275.616c-21.333,17.993 -42.667,36.005 -64,54.03l-6.417,5.429c-71.208,-115.933 -155.625,-192.337 -291.125,-232.213c-21.5,-6.325 -44.375,-12.571 -67.959,-18.328c-17.832,-37.967 -42.374,-71.001 -76.541,-90.546Zm-149.292,67.858l123.292,-56.029c32.626,13.37 57.25,39.808 75.875,72.558c-64.667,-14.146 -133.874,-22.854 -199.167,-16.529Zm246.251,173.692c-71.209,-71.255 -157.793,-126.026 -253.167,-147.593c71.917,-9.095 143.958,-4.604 216.667,10.818c19.416,42.033 30.542,91.387 36.5,136.775Zm-12.084,-131.642c18.334,4.475 36.708,9.579 55.125,15.333c132.084,41.267 216.292,108.296 292.083,218.838l-212.291,178.979c13.333,-74.529 -30.375,-173.008 -70.167,-223.121c-9.042,-11.359 -18.625,-22.287 -28.375,-33.083c-0.792,-8.321 -1.583,-16.637 -2.875,-25.022c-6.25,-40.62 -16.125,-88.408 -33.5,-131.924Zm-3.249,529.658c12.957,-40.225 18.915,-83.175 23.999,-124.946c8.833,-73.137 20.542,-144.258 17.75,-217.142c54.208,63.301 102.041,163.313 75,243.655l-116.749,98.433Zm215.082,4.608c-1.125,-0.162 -2.25,-0.412 -3.375,-0.571c-46.416,-6.482 -95.75,-10.311 -143.041,-4.208l151.5,-135.52c-3.334,46.72 -4.084,93.474 -5.084,140.299Zm301.084,704.534c-0.917,12.812 -1.917,25.617 -2.875,38.425c-12.375,0.225 -24.667,0.883 -36.917,2.033c0.916,-8.246 1.667,-16.5 2.709,-24.741c12.166,-5.705 24.666,-10.622 37.083,-15.717Zm4.125,-52.667c-12.25,10.492 -24.292,21.229 -36.167,32.121c1,-7.412 1.875,-14.829 3.084,-22.238c4.333,-26.87 -1.584,-64.141 0.541,-96.883l42.666,-69.338c-2.791,28.117 -2.166,57.18 -4.333,82.425c-2.124,24.626 -3.917,49.272 -5.791,73.913Zm647.207,82.088c-77.962,28.958 -152.874,67.792 -223.708,108.316c-10.921,6.254 -22.046,12.521 -33.25,18.809c-36.916,-22.326 -74.79,-42.93 -115.004,-59.484c-82.953,-34.129 -179.995,-58.999 -274.371,-58.741c1.834,-14.229 3.584,-28.475 5.376,-42.708c136.625,-53.784 287.541,-70.905 432.5,-43.046c73.667,14.154 145.292,39.732 208.457,76.854Zm224.376,-560.513c-51.376,8.421 -102.208,26.925 -151.376,48.129c-43.583,-74.062 -88.999,-151.479 -149.623,-212.6c3.499,-55.333 5.416,-110.862 7.332,-165.996c0.584,-16.466 1.375,-33.121 2.21,-49.841c52.124,-6.571 106.748,-3.201 163.291,7.462c28.416,5.359 55.957,12.425 82.542,21.963c4.665,6.912 8.748,14.341 13.208,21.445c6.624,21.859 15.542,42.913 18.957,65.934c8.958,60.941 5.917,121.292 10.043,182.446c1.79,26.233 2.457,53.546 3.416,81.058Zm101.168,-1.396c-32.085,-5.129 -64.209,-4.37 -96.084,0.425c-1.666,-45.079 -1.418,-90.133 -1.209,-132.075c0.167,-44.296 -0.583,-87.987 -5.875,-132.008c-0.792,-6.613 -2.291,-13.008 -3.833,-19.391c8.29,15.245 16.459,30.578 23.958,46.229c33.209,69.408 65.582,138.396 86.876,212.15l-3.833,24.67Zm-29.751,636.683l1.208,-7.987l20.333,-133.791c10.293,-10.034 22.543,-17.434 36.418,-22.597c4.083,55.351 9.292,110.617 14.791,165.863c-3.876,6.575 -7.583,13.183 -11.501,19.746c-19.625,-9.683 -40.082,-17.071 -61.249,-21.234Zm-11.418,147.684c0.043,-22.412 -0.25,-44.766 -1.125,-67.017l9.876,-63.687c18.499,4.404 36.708,11.288 54.5,19.854c-22.082,36.538 -44.124,73.217 -63.251,110.85Zm154.334,-47.841c-10.083,-1.501 -20.29,-2.529 -30.707,-2.672c-32.918,-0.437 -61.21,8.25 -85.417,23.217c14.417,-24.688 28.624,-49.504 42.749,-74.358c2.625,1.483 5.333,2.833 7.959,4.391c0.167,1.413 0.291,2.825 0.415,4.234c0.127,1.033 1.793,1.475 1.96,0.267c0.166,-0.972 0.166,-1.896 0.333,-2.867c22.292,13.504 43.376,29.6 62.708,47.788Zm26.251,5.52c-25.543,-28.296 -54.834,-53.717 -86.959,-72.929c0.25,-3.275 0.291,-6.458 0.458,-9.7c3.833,-6.917 7.833,-13.725 11.625,-20.683c33.126,-60.384 68.583,-117.376 113.041,-165.625c31.877,9.887 63.21,25.708 83.376,48.4l-0.166,16.416l-0.208,131.267c-0.21,52.033 0.081,104.067 0.248,156.096c-28.833,-40.196 -71.915,-69.75 -121.415,-83.242Zm121.875,254.775c-1.292,-3.85 -2.71,-7.637 -3.916,-11.562c-16.543,-53.009 -29.417,-110.488 -57.168,-159.188c-9.833,-17.283 -21.25,-34.629 -33.958,-51.487c41.707,14.496 72.416,42.158 94.625,79.683c0.124,25.82 -0,51.637 0.124,77.458l0.293,65.096Zm0.708,-595.187c0,1.674 -0.043,3.35 -0.043,5.025l-0.791,89.15c-2.334,-2.338 -4.708,-4.667 -6.915,-6.604c-17.251,-14.971 -36.919,-26.922 -57.876,-35.963c19.792,-19.158 41.624,-36.4 65.625,-51.608Zm-161.999,59.037c16.249,-0.246 36.248,2.083 56.874,6.813c-39.166,43.545 -71.083,94.996 -98.834,144.799c-1.542,2.78 -3.249,5.526 -4.832,8.3c-2,-50.545 -11.418,-98.916 -13.625,-152.087c18.624,-5.209 39.123,-7.499 60.417,-7.825Zm17.081,-181.041c-26.79,31.741 -53.499,63.308 -77.999,96.27c0.625,-55.462 2.375,-110.983 1.543,-166.475c21.708,-17.92 49.873,-23.987 86.832,-21.12c21.124,1.642 40.251,7.016 57.499,15.045c-24.79,23.834 -46.875,51.438 -67.875,76.28Zm81.043,-69.359c27.791,16.288 49.833,40.396 65.208,70.067c-0.501,34.945 -0.875,69.896 -1.166,104.842c-31.543,15.396 -59.501,36.429 -84.668,60.891c-22.083,-7.325 -45.25,-11.545 -68.583,-11.975c-18.083,-0.329 -43.791,1.338 -69.792,6.475c-0.124,-8.654 -0.041,-17.317 -0.041,-25.974c23.999,-37.293 49.209,-73.843 78.917,-109.776c25.751,-31.117 50.834,-65.691 80.125,-94.55Zm-182.626,128.8l4.334,-29.046c0.708,29.204 2.043,58.363 3.625,87.508c-7.749,11.205 -15.083,22.688 -22.084,34.375l14.125,-92.837Zm-7.165,-392.633c-23.043,-73.742 -56.167,-143.691 -89.583,-213.813c-10.918,-22.942 -24.002,-46.978 -38.792,-70.962c18.707,8.25 37.083,17.47 54.707,29.15c32.459,21.542 76.793,49.963 100,86.934l-26.332,168.691Zm60.083,-384.801l-32.125,205.942c-16.876,-25.787 -42.167,-47.724 -64.793,-66.033c-29.875,-24.158 -62.998,-43.034 -98,-57.659c-0.207,-1.312 -0.625,-2.553 -0.791,-3.878c-0.708,-5.676 -6.834,-7.304 -10.541,-5.275c-31.167,-45.696 -68.917,-89.304 -112.333,-123.079c29.791,-4.53 57.916,-8.204 82.249,-11.705c67.918,-9.779 130.792,-12.383 198.541,-6.371c5.041,0.451 11.542,1.488 18.542,2.6c6.584,21.746 12.917,43.593 19.251,65.458Zm3.416,-21.754c-3.75,-14.092 -7.709,-28.107 -11.792,-42.058c5.916,0.875 11.959,1.696 18.001,2.205l-6.209,39.853Zm8.707,360.421c15.461,2.443 30.919,4.984 45.126,11.413c-17.709,3.954 -34.583,10.246 -49.624,19.312l4.498,-30.725Zm12.376,-495.687l-8.75,56.042l-5.375,34.654c-6.584,-0.388 -13.416,-1.416 -20.209,-2.384c-17.375,-58.495 -38.165,-115.657 -66.624,-170.17c42.334,18.013 81.584,43.325 100.958,81.858Zm12,-76.75l-8.667,55.4c-23.708,-37.73 -73.248,-65.504 -117.625,-83.867c-4.291,-7.479 -8.25,-15.067 -12.874,-22.438c-42.876,-68.625 -91.46,-145.295 -171.959,-170.62l3.085,-4.883c56.581,-25.668 114.79,-41.029 175.791,-33.117c28.082,20.804 51.874,48.658 66.042,75.509c31.708,60.154 52.958,120.641 66.207,184.016Zm26.625,-170.417l-2.166,13.759l-18.667,119.466c-15.124,-68.896 -42.167,-135.912 -84.208,-185.171c-8.042,-9.408 -18.292,-20.982 -29.917,-32.754c3.999,0.922 7.959,1.513 11.999,2.65c30.001,8.472 103.459,41.271 122.959,82.05Zm-50.791,-169.821c19.832,25.255 46.749,65.118 61.499,102.779l-8.083,50.559c-20.209,-32.779 -69.251,-62.629 -92.251,-71.187c-21.04,-7.805 -43.499,-13.563 -66.54,-16.997c-24.75,-21.587 -53.251,-39.953 -80.876,-41.828c41.583,-30.226 84.625,-56.417 130.959,-74.35c20.667,13.641 39.374,30.758 55.292,51.024Zm-375.293,-160.954c35.877,-30.766 71.71,-61.612 107.585,-92.416c35.54,1.024 68.707,5.833 95.874,32.421c17.501,17.124 34.208,40.554 34.291,64.896l-2.708,4.328c-7.124,-45.404 -110.917,-12.767 -135.042,-5.829c-10.04,2.888 -20.207,5.988 -30.416,9.142c-22.125,-9.125 -46.417,-14.183 -69.584,-12.542Zm-21.582,26.163c17.999,-1.517 35.958,-2.679 53.416,-1.279c-17.666,6.092 -35.166,13.033 -52.584,20.233c-0.291,-6.38 -0.541,-12.65 -0.832,-18.954Zm1.75,317.983c7.251,15.229 11.291,32.429 12.042,51.325l-30.709,48.355c-2.5,-0.534 -5.001,-0.268 -7.416,0.378c12.624,-32.025 20.958,-65.562 26.083,-100.058Zm-7.876,-124.095c0.667,12.358 1.251,24.716 1.042,37.116c-0.291,17.717 -1.376,34.896 -2.832,51.854c-13.876,-16.92 -30.919,-31.424 -47.793,-41.763c-19.421,-11.87 -40.708,-21.887 -62.958,-29.433c37.25,-8.675 74.917,-14.691 112.541,-17.774Zm-0.665,-14.001c-44.501,3.196 -88.922,12.342 -132.625,25.638c-32.756,-8.517 -66.881,-11.458 -99.793,-6.304c37.333,-32.417 74.579,-64.947 111.995,-97.276c25.131,-14.103 64.588,-34.775 108.588,-55.749c2.126,44.591 8.71,89.054 11.835,133.691Zm-12.126,-171.263c-0.167,6.322 -0.167,12.639 -0.083,18.955c-17.291,7.737 -34.499,15.75 -50.958,24.871c17,-14.617 34.041,-29.221 51.041,-43.826Zm-203.292,-54.807c3.459,-11.633 6.751,-22.976 10.083,-34.067c22.834,0.579 45.667,2.366 68.543,7.204c47.917,10.137 84.499,32.283 125.999,53.116c-29.832,26.238 -59.583,52.609 -89.588,78.676c-19.244,16.821 -38.661,33.492 -57.912,50.3c10.376,-58.813 -14.917,-114.858 -57.125,-155.229Zm43.834,166.779c-32.792,28.6 -65.709,57.074 -98.588,85.612c7.879,-82.525 26.749,-157.554 50.087,-236.233c0.084,0.129 0.25,0.217 0.377,0.346c39.416,42.062 58.958,93.275 48.124,150.275Zm-89.38,-200.625c14.667,-0.326 29.38,-0.479 44.047,-0.367c-2.297,9.079 -4.714,18.021 -7.168,26.834c-11.458,-9.896 -23.665,-19.018 -36.879,-26.467Zm-262.453,504.358c34.707,-93.363 49.499,-199.734 44.082,-298.329c-0.165,-3.154 -0.332,-6.492 -0.541,-9.951c13.126,10.892 25.078,22.559 35.041,34.876c24.329,30.2 78.626,97.658 72.96,143.4l-81.5,70.259l-70.042,59.745Zm-33.043,58.967l35.251,-31.217c6.374,46.267 -7.834,92.054 -7.084,138.859c-0,0.145 0.209,0.141 0.209,-0c3.667,-49.072 26.958,-99.809 18.791,-149.384l12.084,-10.675c3.291,-0.859 6.541,-1.358 9.791,-2.104c0.708,106.425 -5.666,212.7 -4.083,319.15c0.042,3.308 5,3.3 5.125,0c3.083,-107.746 12.333,-215.192 16.417,-322.883c65.499,-11.259 127.541,-1.28 193.042,21.545c7.369,2.559 15.459,5.696 23.999,9.304c2.792,24.092 4.621,46.784 6.21,65.925c5.582,67.684 10.958,141.513 -2.006,208.634c-5.496,28.57 -11.459,56.983 -16.287,85.583l-50.917,79.054l-63.629,97.717c-5.245,-53.025 -59.829,-155.866 -77.871,-171.767c-21.666,-19.041 -46.541,-36.091 -73.458,-50.762c-22,-73.833 -47.25,-165.233 -108.5,-213.237c27.584,-24.642 55.125,-49.317 82.916,-73.742Zm-259.749,231.87l27.416,-24.512c45.875,-40.908 91.625,-81.975 137.418,-122.959c53.833,44.072 83.083,121.38 103.833,194.013c-81.834,-40.3 -180.084,-58.55 -268.376,-41.3c-0.041,-1.516 0.042,-3.083 -0,-4.596c-0.041,-0.266 -0.249,-0.391 -0.291,-0.646Zm143.333,412.609c58.875,10.55 116.209,27.879 170.042,54.3l-0.167,0.267l-103.083,158.554c6.625,-77.133 -18.625,-152.067 -66.792,-213.121Zm691.874,91.858c-15.79,7.262 -31.331,14.5 -46.665,21.442c-157.209,71.329 -305.542,160.762 -449.292,256.108c-57.084,37.863 -109.626,76.762 -159.292,118.317c1.542,-12.158 3.083,-24.308 4.5,-36.48c6,-52.383 7.334,-107.17 22.458,-157.762l93.375,-151.774c13.625,-12.013 31.542,-21.664 48.958,-30.071c-2.457,79.111 3.085,158.85 5.209,237.545c0.042,1.725 2.62,1.725 2.667,0c2.25,-82.691 9.208,-165.271 13.745,-247.866c2.588,-1.225 5.172,-2.455 7.546,-3.65c41.245,-20.7 88.334,-33.83 133.954,-40.446c92.755,-13.454 189.917,-9.329 279.838,18.692c14.209,4.42 28.583,9.783 42.999,15.945Zm-540.083,-416.388c1.876,1.171 3.793,2.097 5.667,3.3c38.876,25.405 65.501,52.134 85.834,93.171c8.25,16.555 57.292,104.292 28.209,117.367c-2.918,1.308 -2.334,6.659 0.911,7.1c0.214,0.029 0.297,-0.049 0.505,-0.029l-86.792,133.212c17.203,-118.637 0.625,-238.021 -34.334,-354.121Zm440.75,197.551c21.584,24.379 40.084,48.683 53.709,68.07c30.209,43.03 58.374,87.659 85.791,132.725c-4.04,1.775 -8.123,3.488 -12.123,5.288c-21.918,-10.904 -43.71,-19.754 -64.71,-26.191c-104.541,-32.097 -219.708,-41.676 -326.916,-16.305c-28.917,6.842 -64.75,16.754 -99.25,30.604c0.662,-15.291 1.536,-30.588 1.958,-45.883l147.625,-240.317l9.292,-14.937c66.125,-17.717 136.625,34.417 190.875,91.9c0.417,33.783 1.292,67.537 3.5,101.121c0.126,1.608 2.286,1.546 2.453,-0c3.422,-28.547 5.796,-57.284 7.796,-86.075Zm-13.708,-228.746c0.25,15.421 0.417,30.795 0.334,46.041c-0.251,50.242 -0.959,100.767 -0.588,151.23c-1.246,-1.142 -2.371,-2.413 -3.62,-3.542c-47.255,-42.534 -110.583,-91.079 -177.63,-87.113l17.708,-28.483c50.588,-42.258 105.463,-67.016 163.796,-78.133Zm-1.082,-74.325c0.166,18.575 0.457,37.162 0.791,55.667c-49.292,6.524 -96.124,22.012 -135.083,51.133l27.875,-44.887c27.333,-26.984 64.75,-46.884 106.417,-61.913Zm-79.792,19.062l61.619,-99.129l5.048,-7.954c4.708,0.475 9.416,1.029 14.083,1.683c-1.042,23.851 -1.292,47.871 -1.172,71.917c-28.619,8.475 -56.12,19.225 -79.578,33.483Zm-64.339,-248.287c-0.327,-2.242 -0.62,-4.705 -0.958,-6.992c52.671,24.296 115.672,66.059 126.088,119.875l-16.209,25.488l-126.749,196.891c23.333,-111.679 35.703,-216.591 17.828,-335.262Zm-16.416,-34.204c-63.579,-24.354 -142.495,-48.742 -209.912,-31.405l25.708,-22.754l62.75,-54.87c23.454,-15.597 48.5,-29.604 74.168,-42.822c26.536,39.634 39.791,97.579 47.286,151.851Zm-45.329,-175.525c13.792,-11.963 27.584,-23.917 41.333,-35.9c26.251,-6.042 56.626,-7.846 87.543,-5.208c-42.501,13.254 -84.589,27.833 -124.75,46.174c-1.335,-1.728 -2.714,-3.4 -4.126,-5.066Zm193.459,312.246c-9.756,-57.409 -86.334,-112.401 -131.417,-130.263c-1.422,-0.562 -2.958,-1.142 -4.417,-1.709c-7.375,-54.674 -16.125,-117.566 -45.249,-163.808c44.958,-22.024 92.208,-40.708 141.119,-54.433c57.963,9.441 114.297,34.792 144.922,78.233c-7.833,69.946 -26.709,134.587 -60.75,200.442c-0.208,0.396 0.333,0.675 0.584,0.337c2.541,-3.362 4.624,-6.904 6.998,-10.324l-51.79,81.525Zm37.286,-21.659l45.797,-72.666c3.709,45.062 10.834,90.058 17.208,134.999c-19,-7.541 -38.749,-12.791 -59.172,-15.499c-0.791,-15.725 -1.953,-31.367 -3.833,-46.834Zm4.167,125.95c0.464,-19.62 0.708,-39.237 0.214,-58.725c21.875,4.937 42.582,11.775 62.083,20.425c1.082,8.154 1.916,16.296 2.874,24.446c-20.709,3.959 -42.832,8.366 -65.171,13.854Zm228.589,102.921c-21.251,-6.934 -42.959,-12.508 -65.084,-16.429c-51.876,-9.205 -109.959,-15.121 -166.25,-11.017c1.042,-20.775 1.917,-41.65 2.542,-62.521c21.748,-6.52 44.167,-11.987 66.583,-16.629c0.374,3.626 0.917,7.254 1.249,10.88c0.543,5.399 8.126,5.508 8.5,-0c0.25,-4.292 0.126,-8.622 0.25,-12.93c11.251,-2.216 22.376,-4.22 33.46,-6.096c46.081,29.763 85.417,69.125 118.75,114.742Zm138.249,-314.058c4.333,8.196 8.5,16.291 12.416,24.071c24.335,48.571 41.793,99.153 57.418,150.362c-27.627,-4.696 -55.709,-11.85 -79.167,-13.175c-75.543,-4.275 -156.417,8.555 -230.999,23.942c-15.835,-11.346 -32.335,-21.43 -49.543,-29.68c-1.416,-56.041 -7.666,-112.487 -9.749,-168.379c66.29,-30.783 162.207,-27.137 227.207,-9.925c22.5,5.95 47.667,13.309 72.417,22.784Zm-190.792,-200.1c77.874,22.979 136.625,102.924 178.292,177.153c-13.416,-5.133 -26.209,-9.482 -37.041,-12.741c-60.416,-18.171 -126.125,-27.929 -188.667,-14.092c-16.958,3.755 -37.458,6.009 -55.459,12.25l62.376,-98.995l40.499,-63.575Zm20.208,-68.592l-76.709,122.055l-24.916,39.249c0.334,-19.921 -6.624,-39.517 -17.792,-57.321c4.083,-35.079 5.208,-70.917 4.918,-106.821c38.625,-2.358 76.959,-1.421 114.499,2.838Zm2.625,-4.192c-38.873,-10.138 -78.082,-13.925 -117.332,-12.404c-0.918,-48.016 -4.209,-95.987 -6.834,-142.271c25.374,-11.729 51.666,-23.283 77.458,-33.524c14.626,3.9 28.792,10.295 42.043,21.028c20.874,16.917 66.791,52 57.125,83.663l-52.46,83.508Zm131.793,5.388c-44.46,-1.929 -89.168,5.717 -127.917,25.475l2.207,-3.496c13.334,-10.6 26.668,-21.162 40.043,-31.55c27.875,-9.183 57.75,-4.013 85.667,9.571Zm-66.125,-109.946c-4.875,-27.284 -36.042,-56.383 -52.668,-71.133c-9.582,-8.534 -21.04,-16.117 -33.416,-22.546c76.792,-28.142 142,-40.4 148.333,-5.621l-24.875,39.854l-37.374,59.446Zm113.041,-22.571c6.209,2.537 12.25,5.425 18.209,8.542c-59.585,24.124 -116.126,62.725 -163.792,103.559l60.5,-95.013c26.666,-13.229 55.749,-18.271 85.083,-17.088Zm-1075.71,1008.78c19.042,12.697 35.5,26.788 50.75,41.496c-77.125,-11.129 -156.334,-11.487 -232.584,-5.737c2.959,-33.779 5.709,-67.563 7.625,-101.292c61.333,11.221 121.875,30.667 174.209,65.533Zm-92.959,-85.967c-0.25,2.176 3.167,2.501 3.75,0.505c21.042,-75 36.209,-160.884 37.625,-240.705c94.209,-15.67 191.376,-1.795 276.751,45.988c4.208,15.85 8.124,31.237 11.874,45.609c26.958,103.091 50.751,218.362 35.542,326.541l-9.958,15.255c-55.292,-28.946 -115.126,-48.109 -176.875,-59.822c-18.25,-21.883 -39.417,-41.903 -63.459,-59.283c-58.375,-42.238 -124.374,-69.85 -194.833,-82.833c0.041,-0.65 0.083,-1.308 0.125,-1.958c2.041,-50.363 22.25,-114.217 13.541,-165.504l59.834,-53.526c9.292,-2.537 18.625,-4.741 27.958,-6.708c-13.416,77.062 -12.583,159.566 -21.875,236.441Zm150.625,-700.991c59.292,58.988 86.418,135.441 88.125,219.138c-35.958,30.529 -72.083,60.904 -108.166,91.303c13.625,-42.75 13.958,-90.133 20.583,-134.333c8.459,-56.458 11.417,-118.958 -0.542,-176.108Zm215,-193.192c-33.916,-27.608 -72.916,-49.225 -114.792,-57.095l82.459,-37.775c16.458,27.27 26.875,59.562 32.333,94.87Zm-13.583,-103.466l155.293,-71.171c15.208,1.475 30.452,2.258 45.623,2.35c27.584,7.942 53.001,20.758 75.584,41.658c-24.542,80.3 -47.088,161.129 -43.542,245.808c-21.124,18.317 -42.125,36.747 -63.292,54.954l-29.998,25.88c6.41,-42.384 -44.501,-107.776 -64.126,-132.817c-14.797,-18.879 -32.084,-37.284 -51.083,-54.012c-2.167,-35.751 -6.751,-80.805 -24.459,-112.65Zm819.542,-87.955l-34.751,55.672c-8.584,-42.884 -64.834,-89.371 -111.833,-96.534c28.666,-29.779 61.833,-52.075 104.374,-29.967c32.502,16.863 41.043,40.762 42.21,70.829Zm55.209,-95.7c-1.125,4.175 -2.334,8.338 -3.626,12.488l-39.416,63.737l-0,0.038c-6.667,-43.017 -62.834,-74.867 -108.875,-69.917l24.917,-21.133c45.042,-5.895 89.29,-11.083 127,14.787Zm3.041,-11.641c-10.667,-9.687 -25.875,-16.084 -38.167,-19.625c-20.833,-6.013 -43.874,-7.659 -66.209,-5.267l74.666,-63.262c13.542,-4.35 27.627,-7.296 41.169,-4.326c-0.293,13.596 -0.668,27.189 -2.251,40.647c-2.083,17.746 -5.167,34.924 -9.208,51.833Zm24.583,-87.263c0.625,0.351 1.249,0.413 1.833,0.792c2.834,1.784 6.126,3.813 9.459,5.975c-1.249,10.275 -2.334,20.483 -3.042,30.729c-1.042,1.558 -1.084,3.492 -0.417,5.425c-0.083,1.817 -0.083,3.655 -0.124,5.484l-20.209,32.683c7.166,-26.087 11.251,-53.908 12.5,-81.088Zm-0.541,-46.416l13.165,-11.155c0.875,16.992 2,33.905 0.126,51.326c-0.083,1.149 -0.25,2.283 -0.376,3.433c-3.54,-2.429 -7.54,-4.788 -11.957,-6.983c0.251,-12.601 0,-24.879 -0.958,-36.621Zm112.04,231.087c-11.666,-12.125 -26.082,-21.933 -38.749,-27.338c-25.918,-11.053 -61.709,-27.487 -91.292,-20.154l48.126,-74.324c34.542,31.354 66.166,75.225 81.915,121.816Zm-86.79,-252.467l0.625,-0.529c12.707,0.276 27.541,4.709 37.166,11.983c-4.042,14.351 -9.084,28.038 -15.25,40.73l-17.041,27.575c-1.917,-2.008 -4.043,-3.517 -6.167,-5.316c4.624,-25.338 5.959,-51.984 0.667,-74.443Zm-9.875,313.5c-10.043,-3.875 -21.918,-6.662 -34.208,-8.679c13.625,-2.72 27.581,-3.754 41.79,-2.217c37.875,4.101 69.668,26.171 83.501,57.476l-0.542,3.499c-19.374,-25.72 -67.083,-41.02 -90.541,-50.079Zm88.499,62.933l-2.208,13.663l-3.792,23.888c-42.666,-9.142 -86.332,-5.408 -129.124,7.163c-3.292,-0.78 -6.5,-1.738 -9.835,-2.38c-10.831,-2.1 -22.833,-4.442 -35.207,-6.341c-20.833,-9.896 -42.875,-15.567 -65.208,-15.263l27.958,-43.654c10.083,-8.346 20.917,-16.184 32.333,-23.196c28.833,-12.583 59.875,-13.162 91.876,0.213c22.583,9.449 72.75,23.37 93.207,45.907Zm-475.749,1683.91c-67.625,-44.947 -147.506,-75.4 -229.293,-91.105c-105.79,-20.308 -216.707,-22.445 -322.124,1.738c-38.75,8.892 -76.375,21.549 -113.375,35.916c0.124,-0.925 0.208,-1.845 0.333,-2.771c39.167,-35.316 80.709,-68.808 126.667,-100.158c129.459,-88.249 262.084,-175.608 401.584,-247.233c42.869,-22.009 89.998,-48.091 139.374,-71.988c22.249,10.034 44.374,22.329 65.999,36.005c3.626,6.112 7.292,12.216 10.877,18.325c67.958,115.362 110.75,248.104 129.457,382.762c-71.541,1.067 -141.583,15.63 -209.499,38.509Zm178.416,245.654c-22.583,-98.322 -82.292,-176.009 -160.75,-233.055c62.209,-20.225 126.418,-33.766 193.542,-37.854c1.082,8.58 2.417,17.142 3.292,25.73l-9.918,66.279l-26.166,178.9Zm56.834,399.799c1.249,18.038 2.458,36.079 3.666,54.117c-15.041,5.388 -29.5,12.029 -43.042,19.688c10.376,-25.288 22.876,-51.492 39.376,-73.805Zm-60.376,36.388l4.209,-26.416l34.626,-219.792c2.083,-6.971 4.207,-13.937 6.083,-20.938c2.207,34.233 4.708,68.083 6.707,100.8c1.75,29.133 3.833,58.284 5.876,87.437c-23.083,21.179 -41.917,48.346 -57.501,78.909Zm-1295.96,-1057.38c-2.375,-10.687 -4.75,-21.378 -7.541,-31.999c-10.542,-40.663 -21.875,-88.105 -38.5,-132.88c58.5,-17.57 117.833,-32.091 178.833,-38.099c0.041,-0.009 0.083,-0.009 0.125,-0.017c-4.042,52.125 -7.542,104.267 -4.584,156.379c0.25,4.2 6.126,4.133 6.5,-0c4.417,-52.429 9.751,-105.113 14.458,-157.821c79.668,-6.979 161.876,-7.633 241.917,3.342c63.001,65.325 91.001,147.966 84.834,239.887l-256.542,394.555c-7.625,11.887 -15.291,23.758 -22.917,35.633c46.5,-160.034 -43.208,-354.434 -170.457,-450.85c-8.459,-6.413 -17.251,-12.337 -26.126,-18.13Zm263.25,461.034l3.042,-4.983c13.416,-6.096 27.041,-11.434 40.917,-16.108c-12.751,14.216 -25.376,28.716 -37.834,43.866c-48,58.329 -84.667,119.509 -126.375,182.188c-13.041,19.616 -27.5,37.808 -42.5,55.429c54.584,-86.562 108.542,-173.563 162.75,-260.392Zm-290.792,278.188c37.751,-137.176 53.25,-280.4 55.084,-423.288c1.208,-93.321 -3.292,-187.191 -20.126,-279.084c9.584,7.038 18.875,14.509 27.793,22.555c63.249,57.17 114.416,129.22 139.458,211.462c13.166,43.221 23.125,88.638 20.291,134.121c-2,31.534 -14.417,64.183 -18.041,94.604c-47.584,74.034 -95.251,148.042 -142.209,222.472c-21.208,33.395 -42.249,66.92 -63.416,100.332c5.124,-27.133 4.958,-55.079 1.166,-83.174Zm-41.541,-913.101c-31.917,9.109 -63.667,19.063 -95.458,29.529c-40.209,13.243 -80.417,24.918 -119.543,38.909l127.334,-112.434l39.917,-35.695c18.958,22.592 34.874,49.679 47.75,79.691Zm-33.542,-92.416l48.791,-43.629c57.751,-22.155 132.25,-19.096 194.334,-9.292c-1.125,35.121 -3.958,70.258 -6.75,105.408c-0.292,0.03 -0.666,0.046 -0.958,0.075c-63.125,5.559 -124.167,18.413 -184.542,34.934c-13.125,-32.522 -29.541,-62.758 -50.875,-87.496Zm1174.37,-1343.66l-34.249,15.15c19.749,-42.883 40.792,-85.096 55.917,-128.528c3.416,4.141 6.958,8.204 10.583,12.12c11.292,12.113 42.251,49.321 68.583,56.662l-100.834,44.596Zm125.792,12.709c-21.041,45.746 -30.042,104.058 -29.374,151.038c-10.501,-25.497 -37.293,-48.651 -60.167,-60.622c-22.959,-11.996 -54.834,-22.308 -86.625,-25.6l70.666,-32.621l74.042,-34.166c10.708,0.063 21.251,0.471 31.458,1.971Zm446.083,-2.9l-2.665,16.17l-8.042,50.163c-10.417,-15.705 -28.042,-28.283 -44.208,-35.988c-9.751,-4.658 -26.375,-10.621 -42.458,-12.758c11.208,-12.204 22.416,-24.425 35.124,-35.054c0.624,-0.508 1.251,-1.017 1.875,-1.525c8.667,0.008 17.334,0.6 25.708,2.8c12.043,3.175 25.417,8.145 34.666,16.192Zm-56.624,-34.862c-3.666,-0.396 -7.375,-0.751 -11.041,-0.835l43.54,-67.216c8.376,10.109 14.834,21.254 19.959,33.05c-17.916,11.084 -35.915,22.1 -52.458,35.001Zm54.083,-30.793c3.583,8.892 6.625,18.055 8.834,27.576l-4.167,25.267c-6.874,-6.43 -15.541,-11.546 -24.499,-14.755c-4.584,-1.633 -12.293,-3.695 -21.043,-5.355c13.418,-11.136 27,-21.962 40.875,-32.733Zm-45.249,1311.17c-2.126,-53.754 -1.709,-109.521 -2.918,-165.45c41.75,36.412 76.292,89.725 97.416,142.304l-1.416,82.771l-0.832,52.387c-22.334,-18.012 -59.458,-26.678 -82,-27.707c-11.168,-0.513 -22.667,0.037 -34.168,1.129c-20.583,-13.259 -43.457,-21.73 -69.415,-26.442l29.958,-205.929c14.083,-9.425 29.541,-15.963 45.917,-19.013c7.165,55.121 13.499,110.355 17,165.95c0,0.284 0.458,0.288 0.458,-0Zm-66.459,1437.97c55.208,21.05 97.292,61.754 128.833,110.513c-67.375,-59.325 -166.124,-84.983 -248.415,-45.384c-11.044,5.326 -21.377,11.354 -31.417,17.692c-0.167,-25.588 -0.293,-51.176 -0.668,-76.754c50.291,-19.017 105.959,-23.504 151.667,-6.067Zm-151.958,-13.813c-0.376,-23.7 -0.543,-47.399 -1.041,-71.108c9.375,-8.983 19.625,-16.921 31.333,-22.741c60.458,-30.105 152.208,-29.433 212.25,2.387c21.582,11.441 43.54,28.396 61.499,48.746l1.666,190.425c-36.916,-76.563 -95.373,-140.171 -184.542,-157.254c-34.082,-6.529 -78.54,-2.975 -121.165,9.545Zm-991.834,-205.033c18.501,7.538 36.708,15.788 54.709,24.546c-18.126,-1.471 -36.5,-1.35 -55.083,0.054c0.125,-8.2 0.292,-16.4 0.374,-24.6Zm-79.249,-473.454l86.333,-140.334c0.291,11.826 0.625,23.3 0.374,33.854c-0.624,21.821 -2.166,43.605 -4.125,65.372c-27.707,12.016 -56.124,25.253 -82.582,41.108Zm-512.209,202.425c-6.167,-46.27 -15.958,-97.775 -30.125,-149.963c100.292,82.534 182.667,200.713 190.75,326.705c-15.333,58.858 -34.5,116.637 -59.458,172.458c-14.584,23.046 -29.251,46.042 -43.709,69.163l-106.583,169.637c18.626,-58.037 28.5,-119.104 35.042,-181.025c14.208,-134.079 32,-272.408 14.083,-406.975Zm-74,-217.817c-5.375,-3.395 -11,-6.554 -16.5,-9.816c-0.416,-12.009 -1.583,-24.109 -2.25,-36.146c6.709,15.054 12.959,30.367 18.75,45.962Zm-46.042,-411.645c41.75,-5.246 85.959,-4.567 114.583,-2.909c69.209,4.004 137.542,23.933 196.209,60.616c0.042,0.189 0.083,0.401 0.125,0.588c20.125,105 26.5,210.304 23.458,317.037c-3.625,125.159 -13.791,252.264 -40.208,375.342c-26.459,-123.75 -124.792,-247.108 -218,-317.77c-14.041,-43.412 -31.583,-86.238 -52.75,-126.201c-9.667,-102.354 -33.834,-204.145 -23.417,-306.703Zm-4.666,234.824c1.375,10.142 2.5,20.342 3.833,30.505c-42.875,-66.846 -98.458,-121.175 -170.208,-148.255c35.542,-31.012 71.166,-61.916 106.791,-92.858l16.709,-14.754c6.124,-1.821 12.583,-3.354 19.208,-4.746c-16.625,72.276 14.375,161.175 23.667,230.108Zm-906.083,-1697.67c28.25,55.216 50.416,113.083 65.458,173.008c-1.459,-1.154 -2.792,-2.367 -4.292,-3.516c-23.541,-18.321 -47.458,-36.401 -71.541,-54.221c4.958,-38.43 8.541,-76.9 10.375,-115.271Zm253.457,377.371c-41.541,-65.68 -92.166,-123.242 -152.958,-175.63c-18.792,-92.262 -51.374,-181.245 -99.249,-262.47c-0,-5.146 0.207,-10.321 0.083,-15.454c-1.417,-64.08 -7.042,-134.484 -30.375,-196.134c99,43.071 194.208,95.526 284.916,154.263c2.084,165.291 5.375,330.578 -2.417,495.425Zm2.125,-519.584c-94.583,-60.8 -193.374,-114.758 -296.75,-158.045c-7.499,-15.063 -16.416,-29.313 -26.791,-42.643l234.083,2.08l8.375,0.041c27.042,8.564 54.208,16.822 80.25,27.855c-0.291,56.888 0.167,113.8 0.833,170.712Zm-336.458,-173.921c-25.416,-9.837 -51,-19.245 -77,-27.687l46.209,0.534l9.75,0.087c7.791,8.491 14.667,17.612 21.041,27.066Zm-150.5,-28.537c57.084,15.821 113,35.529 167.876,57.946c27.499,55.404 37.166,121.358 39.041,185.404c-6.25,-9.199 -12.459,-18.417 -19.125,-27.371c-60.25,-80.804 -147.125,-169.354 -246.208,-216.658l58.416,0.679Zm-45.791,53.279c23.374,12.192 46.249,26.087 68.875,42.704c64.75,47.551 121.416,106.846 165.542,174.071c6.458,9.896 12.082,20.221 18.082,30.35c-0.416,13.225 -1,26.254 -1.791,38.838c-2.042,34.087 -5.167,68.325 -9.042,102.57c-50.874,-36.595 -103.083,-71.304 -158.041,-100.97c-34.583,-94.547 -73.834,-187.05 -83.625,-287.563Zm-27.375,-13.383c2.833,101.075 44.583,192.587 82.041,285.516c-33.499,-16.695 -67.958,-31.479 -103.666,-43.704c-115.5,-39.55 -224.833,-56.242 -339.792,-47.412c-26.875,-94.08 -71.5,-182.671 -149.334,-242.784l148,2.525c82.542,1.492 165.042,2.721 247.584,3.684c0.5,0.212 0.875,0.584 1.416,0.749c40.209,11.985 77.751,24.988 113.751,41.426Zm-534.667,-42.338c78.834,55.83 127.208,143.417 155.583,238.587c-26.125,2.592 -52.5,6.317 -79.375,11.58c-52.791,-54.454 -111.458,-104.142 -174.583,-145.917c-75.334,-49.862 -154.916,-81.487 -236.333,-117.266c76.292,1.8 152.541,3.646 228.833,4.758l101.75,1.733c0.375,2.425 1.625,4.767 4.125,6.525Zm86.292,260.613c24.291,-4.916 48.5,-8.329 72.667,-10.405c11.957,42.921 20.041,87.155 25.041,130.576c-25.25,-36.647 -52.875,-71.738 -82.917,-104.862c-4.75,-5.238 -9.916,-10.155 -14.791,-15.309Zm-1310.62,1978.05c0.75,1.496 2.499,2.15 4.041,1.516c105.417,-44.571 210.542,-89.792 315.667,-135.037c105.125,-45.221 210.333,-90.225 315.166,-136.158l314.709,-137.146c104.876,-45.746 209.875,-91.242 314.416,-137.729l627.96,-277.546c104.749,-46.071 209.166,-92.871 313.582,-139.621l32.417,-14.5c35.792,0.083 71.417,-0.071 107.25,8.204c4.834,1.117 9.5,2.671 14.25,3.958c3.792,14.122 8.833,28.213 14.417,42.063c29.749,73.467 68.166,141.063 92.166,217.325c33.001,104.85 47.125,209.384 47.542,319.208c0.167,51.888 -2.083,103.663 -3.25,155.459c-0.666,30.108 -16.125,55.741 -17.167,85.629c-0.042,1.871 2.959,1.871 2.917,0c-0.959,-27.23 17.125,-57.113 18.208,-85.629c1.667,-42.738 8.751,-85.055 10.125,-127.934c2.792,-86.62 3.667,-172.158 -15.667,-257.167c-16.75,-73.641 -38.249,-149.187 -70.666,-217.682c-18.083,-38.263 -43.208,-80.909 -54.833,-124.259c31.916,10.783 62.375,25.442 90.583,44.263c80.417,53.67 151.583,124.929 200.042,209.041c72.583,125.855 89.333,288.917 17.5,415.946c-17.542,15.262 -35.209,30.379 -52.708,45.713l-234.334,205.054l-233.625,205.833c-77.916,68.562 -155.542,137.483 -233,206.571c-77.625,68.925 -155.084,138.037 -232.25,207.475c-77.375,69.154 -154.25,138.958 -231.084,208.766c-76.916,69.726 -153.833,139.434 -230.083,209.959c-1.25,1.166 -1.333,3.133 -0.167,4.396c1.125,1.212 3.001,1.324 4.25,0.3c80.501,-65.592 160.334,-132.005 240.126,-198.396c79.875,-66.308 159.749,-132.621 239.083,-199.584c79.542,-66.683 158.834,-133.687 237.958,-200.883c36.417,-30.82 72.667,-61.871 109.042,-92.783c-25.833,91.133 17.209,230.484 13.708,307.179c-5.583,120.904 -22.541,241.017 -30.25,361.817c-7.874,122.479 -14.583,244.979 -41.833,365.021c-0.792,3.5 4.542,4.958 5.375,1.458c50.584,-203.892 60.458,-416.883 81.333,-625.288c8.334,-83.166 10.542,-163.137 1.501,-246.075c-5.751,-52.62 -19.292,-129.212 6.457,-181.487c48.126,-16.058 95.167,-29.696 149.292,-32.071c58.792,-2.579 118.084,-0.021 176.084,10.612c122.125,22.396 245.916,67.509 341.917,148.592c100.083,84.584 168.458,200.479 176.874,333.15c4.667,73.546 -5.166,144.705 -24.208,213.838l-142.709,228.937l-180.54,291.376l-179.626,291.999c-59.917,97.292 -118.958,195.167 -178.208,292.875c-59.292,97.709 -118.542,195.417 -176.959,293.667c-0.874,1.458 -0.417,3.375 1.084,4.25c1.417,0.875 3.25,0.416 4.166,-0.917c63.751,-94.875 126.708,-190.292 189.584,-285.708c62.916,-95.375 126.041,-190.667 188.291,-286.458l186.959,-287.376l185.958,-287.957l59.125,-92.005c-11.459,97.255 10.167,202.004 18.042,296.255c15.333,182.874 7.625,368.458 8.542,551.749c-0,1.459 2.208,1.459 2.208,0c1.583,-177.583 18.416,-357.708 7.125,-535.166c-7.167,-113.376 -26.667,-230.584 -5.958,-343.284c42.708,-36.383 90.916,-61.421 148.416,-79.392c82.292,-25.7 169.666,-48.42 255.584,-57.441c3.291,0.137 6.582,0.734 9.874,0.958c-63.75,48.771 -107.749,136.396 -136.958,203.159c-63.75,145.5 -74.709,308 -91.416,463.916c-0.626,5.5 8.791,6.75 9.624,1.292c18.625,-123.5 33.542,-249.501 69.917,-369.416c25.5,-84.043 78.167,-232.518 165.833,-297.297c104.667,11.692 210.167,63.572 298.75,112.6c103.917,57.517 202.042,124.155 300.584,190.238c102.584,68.791 194.708,136.625 275.828,230.625c53.125,61.5 133.588,131.458 167.381,211.583l-10.252,75.792c-13.332,96.75 -25.498,193.666 -38.125,290.5c-12.624,96.875 -25.17,193.75 -37.04,290.708c-0.209,1.709 0.999,3.25 2.708,3.458c1.666,0.209 3.166,-0.916 3.459,-2.541c17.208,-96.167 33.832,-192.417 50.331,-288.667c16.46,-96.292 33.417,-192.458 49.209,-288.833l48.084,-289.042l47.792,-289.041l8.624,-53.405c8.293,-16.617 18.083,-32.116 30.292,-45.716c190.668,-79.763 393.376,120.412 445.25,304.288c1.334,84.375 3.708,168.75 5.668,253.125c2.04,87.541 4.207,175.041 7.291,262.541c0.041,1.708 1.5,3.083 3.209,3c1.623,-0.042 2.958,-1.375 2.999,-3c3.084,-87.5 5.251,-175 7.291,-262.541c2.043,-87.5 4.543,-175 5.876,-262.5l4.291,-262.551c1.041,-87.512 2.667,-175.021 3.251,-262.533l2.333,-262.529l1.209,-262.534c0.415,-87.512 0.791,-175.02 0.415,-262.533l-0.208,-131.267l-1.125,-131.266c-0.5,-87.509 -2.207,-175.021 -3.582,-262.529l-4.25,-262.534l-4.417,-262.529c-1.709,-87.513 -2.501,-175.025 -3.376,-262.533c-1.125,-87.513 -0.834,-175.026 -1.332,-262.534l0.415,-262.533l1.959,-262.529l3.084,-231.116l3.917,-28.576l0.083,-0.496c1.416,-10.383 -5.875,-19.954 -16.251,-21.375c-4.875,-0.662 -9.416,0.908 -13.208,3.5l-403.583,-5.958c-1.249,-0.604 -2.625,-0.663 -3.876,-0.059l-137.624,-2.028c-185.213,-1.65 -370.416,-4.33 -555.625,-5.134l-555.583,-3.25c-92.626,-0.492 -185.209,-1.287 -277.834,-1.142l-277.792,-0.195l-555.625,2.758l-277.791,2.463l-277.792,3.216c-92.625,0.971 -185.209,2.459 -277.834,4.129l-277.791,4.742c-92.583,1.345 -185.208,3.567 -277.791,5.775c-92.625,2.12 -185.209,4.225 -277.834,7.104c-1.708,0.05 -3.042,1.487 -3,3.204c0.041,1.65 1.375,2.958 3,3.012c92.625,2.876 185.209,4.98 277.834,7.101c5.333,0.129 10.667,0.208 15.999,0.333c91.875,35.113 179.792,77.488 257.792,137.575c67.834,52.225 130.791,111.396 187.083,175.921c42.167,48.367 79.751,100.875 112.542,156.179c0.333,8.387 0.667,16.767 0.792,24.967c3,166.083 -25.709,329.275 -62.625,490.633c-37.708,164.692 -83.917,329.775 -155.042,483.525c-41.875,90.458 -80.792,201.633 -145.709,284.358c-39.541,18.501 -79.166,36.8 -118.708,55.301l-310.916,145.554c-103.709,48.296 -207.042,97.525 -310.458,146.537c-103.417,48.984 -206.834,98 -309.959,147.663c-1.542,0.746 -2.167,2.608 -1.458,4.154Z" style="fill:#fff;fill-rule:nonzero;"/></svg>