<?xml version="1.0" encoding="UTF-8" standalone="no"?><!DOCTYPE svg PUBLIC "-//W3C//DTD SVG 1.1//EN" "http://www.w3.org/Graphics/SVG/1.1/DTD/svg11.dtd"><svg width="100%" height="100%" viewBox="0 0 5051 5397" version="1.1" xmlns="http://www.w3.org/2000/svg" xmlns:xlink="http://www.w3.org/1999/xlink" xml:space="preserve" xmlns:serif="http://www.serif.com/" style="fill-rule:evenodd;clip-rule:evenodd;stroke-linejoin:round;stroke-miterlimit:2;"><path d="M35.446,544.768c13.104,33.5 35.279,64.192 61.679,89.237c22.6,88.967 83.837,165.009 159.004,222.45c-11.2,8.5 -22.592,16.726 -34.396,24.296c-42.608,27.338 -154.191,99.076 -171.654,13.763c-1.087,-5.296 -7.462,-6.113 -11.2,-3.625l-1.896,-216.879l-1.537,-129.242Zm3.616,366.77c17.592,61.792 98.996,32.467 143.276,8.184c27.124,-14.879 56.933,-33.2 85.708,-54.271c46.804,33.896 98.329,60.738 149.062,79.037c86.075,31.047 187.404,40.967 258.4,-6.157c-6.391,14.349 -12.795,28.728 -19.258,43.241c-7.883,17.95 -15.817,36.025 -23.804,54.213c-0.888,2.067 -1.775,4.15 -2.684,6.208c-65.183,66.362 -152.725,104.892 -253.12,104.646c-147.292,-0.363 -289.417,-88.321 -337.55,-231.442l-0.03,-3.659Zm0.475,54.459c26.425,52.95 70.913,102.083 116.938,133.579c28.362,43.566 45.733,92.763 74.883,135.821c25.892,38.246 67.521,61.2 108.484,79.888c75.825,34.6 147.975,15.029 202.016,-40.813c-5.396,16.133 -10.795,32.283 -16.237,48.546c-6.642,19.875 -13.317,39.85 -20.021,59.916c-0.367,1.125 -0.763,2.25 -1.129,3.375c-28.804,25.45 -76.304,41.079 -106.146,47.338c-49.417,10.358 -100.346,9.875 -149.842,-0.109c-97.829,-19.732 -184.766,-65.303 -206.341,-169.453l-2.605,-298.088Zm3.205,366.792c42.112,74.612 139.166,109.808 222.845,121.433c57.392,7.97 121.384,5.908 175.142,-17.883c16.217,-7.176 39,-17.354 57.392,-31.047c-4.259,12.647 -8.459,25.338 -12,38.297c-18.804,63.357 -37.329,127.862 -55.546,192.925c-1.575,2.554 -3.271,4.958 -4.95,7.375c0.021,-0.2 0.062,-0.388 0.083,-0.588c0.217,-2.417 -3.208,-2.509 -3.95,-0.533c-1.675,4.441 -3.662,8.7 -5.462,13.075c-15.609,17.859 -35.471,30.775 -62.896,37.088c-20.654,4.753 -42.054,6.825 -63.433,6.591c-0.013,-0.092 -0.013,-0.184 -0.021,-0.271c-0.5,-4.266 -5.967,-4.217 -6.604,-0.083c-16.792,-0.587 -33.534,-2.334 -49.817,-5.967c-92.804,-20.721 -161.408,-81.784 -189.162,-170.425l-0.051,-9.296l-1.458,-167.891l-0.112,-12.8Zm1.958,252.095c38.362,70.513 124.417,115.955 201.379,127.213c5,0.733 10.367,1.284 15.9,1.717c-3.758,13.824 -2.95,30.658 -4.117,44.179c-0.079,0.899 1.334,1.058 1.546,0.212c2.388,-9.575 5.021,-19.116 7.267,-28.72c1.188,-5.097 2.758,-10.121 3.329,-15.247c3.921,0.201 7.792,0.451 11.863,0.513c-3.542,32.337 -4.909,65.396 -5.384,98.513c-8.841,3.882 -17.908,7.512 -27.6,10.375c-79.979,23.628 -148.991,2.679 -203.204,-56.642l-0.458,-85.621l-0.521,-96.492Zm246.442,129.968c37.512,-0.559 79.275,-8.059 110.245,-26.705c-25.712,50.049 -61.558,92.509 -111.758,118.588c2.442,-30.83 3.746,-61.601 1.513,-91.883Zm-245.35,73.37c58.104,64.358 150.908,69.412 230.387,36.816c-0.258,37.629 0.738,75.259 1.7,111.993c0.013,0.449 0.683,0.445 0.7,-0c1.621,-38.58 6.496,-78.013 9.984,-117.434c60.679,-28.396 111.608,-78.846 130.22,-141.054c-18.262,66.291 -35.766,133.587 -52.721,201.371c-12.416,38.896 -30.499,76.758 -72.55,90.5c-33.758,11.033 -70.558,9.991 -104.362,-0.801c-35.375,-11.295 -70.05,-29.349 -97.221,-55.079c-3.683,-3.491 -6.912,-7.041 -10.079,-10.608c-1.679,-5.754 -3.308,-11.516 -4.696,-17.342c-0.087,-0.378 -0.737,-0.304 -0.687,0.092c0.625,4.709 1.479,9.388 2.462,14.038c-16.641,-19.784 -26.046,-40.979 -32.883,-64.48l-0.254,-48.012Zm0.533,100.029c8.954,14.475 19.737,27.638 32.133,39.308c-3.466,11.871 -3.246,24.725 -4.116,37.013c-1.059,14.909 -2.025,30.296 -0.584,45.187c0.025,0.288 0.425,0.367 0.517,0.071c3.812,-12.475 5.958,-25.862 7.629,-38.804c1.525,-11.833 4.259,-24.375 4.288,-36.512c1.187,1.008 2.45,1.937 3.646,2.941c3.004,8.176 6.241,16.292 9.658,24.33c1.092,29.087 -2.1,55.92 -4.975,86.016c-2.392,25.075 -6.171,55.429 9.667,77.004c0.454,0.621 1.483,0.275 1.279,-0.537c-10.063,-39.984 6.279,-83.063 10.72,-124.2c0.321,0.745 0.659,1.5 0.976,2.246c14.47,33.97 24.841,79.024 52.62,105.404c24.963,23.704 95.067,61.67 131.655,39.875c-1.534,7.117 -3.071,14.254 -4.609,21.379c-25.529,26.079 -75.633,28.688 -111.129,26.325c-56.338,-3.754 -105.542,-27.384 -138.121,-69.371l-0.566,-108.758l-0.688,-128.917Zm1.6,304.008c23.683,38.263 64.258,65.538 110.804,69.605c38.258,3.342 85.004,3.554 116.646,-22.175c2.538,-2.063 5.046,-4.28 7.504,-6.592c-8.396,37.75 -16.8,75.529 -25.221,113.371l-7.333,33.262l-6.417,33.454l-4.279,22.33c-23.587,44.283 -61.958,80.849 -117.496,60.862c-54.008,-19.442 -63,-59.258 -73.171,-105.059l-1.037,-199.058Zm1.408,269.642c20.834,29.255 53.538,50.359 90.3,56.179c2.784,0.438 5.5,0.446 8.238,0.596c-19.613,29.288 -34.438,62.046 -56.45,87.912c-25.709,-34.353 -34.563,-77.632 -41.963,-120.157l-0.125,-24.53Zm0.404,78.229c7.009,27.688 17.463,54.801 32.838,75.438c-9.208,9.179 -19.792,17.083 -32.321,23.204l-0.517,-98.642Zm0.555,106.025c13.229,-6.371 25.375,-15.008 36.491,-25.337c12.754,15.195 28.534,26.196 48.592,29.417c12.867,2.066 24.404,0.562 34.808,-3.354c-1.137,3.986 -2.412,7.924 -4.15,11.699c-0.187,0.409 0.417,0.763 0.604,0.354c1.83,-3.978 3.155,-8.137 4.334,-12.345c12.754,-4.988 23.737,-13.701 32.9,-24.821c-5.679,31.063 -11.313,62.129 -16.65,93.195c-13.15,25.926 -31.529,45.251 -58.575,45.359c-42.158,0.175 -64.933,-30.767 -78.121,-67.737l-0.012,-3.842l-0.221,-42.588Zm0.333,88.721c7.783,11.321 16.904,21.034 27.179,28.404c-1.35,28.53 1.621,62.996 20.604,84.884c-9.091,22.212 -20.046,43.692 -33.204,62.983c-5.775,-10.325 -10.608,-21.221 -14.225,-31.954l-0.354,-144.317Zm0.412,168.067c3.009,5.233 6.28,10.195 9.684,15.004c-3.004,4.1 -6.371,7.779 -9.621,11.608l-0.063,-26.612Zm0.092,38.479c4.934,-5.659 9.688,-11.442 13.913,-17.608c6.15,7.908 12.862,15.074 20.325,20.983c15.266,12.091 40.808,9.412 57.1,-2.496c-3.313,7.041 -8.634,18.559 -15.45,29.091c1.158,-2.479 2.116,-5.007 3.404,-7.453c0.316,-0.6 -0.533,-1.092 -0.904,-0.53c-3.609,5.484 -6.484,11.184 -9.088,16.955c-8.475,10.245 -18.587,17.241 -30.008,13.025c-19.338,-7.133 -31.271,-22.655 -39.267,-41.538l-0.025,-10.429Zm0.117,47.313c5.971,6.916 12.737,12.971 20.725,17.562c-1.871,28.088 -2.184,58.066 5.587,84.621c0.096,0.329 0.179,0.675 0.271,1.004c-3.141,4.912 -6.412,9.75 -10.146,14.133c-4.304,5.054 -9.254,11.5 -15.371,14.471c-0.279,0.138 -0.475,0.067 -0.745,0.179l-0.321,-131.97Zm0.337,139.52c8.359,-2.816 16.559,-12.554 20.588,-17.713c2.808,-3.596 5.35,-7.282 7.717,-11.025c4.124,15.601 7.995,31.676 18.637,44.28c8.117,9.617 16.092,12.65 23.396,11.804c-2.917,22.88 -5.871,46.05 -8.775,68.825c-0.838,0.838 -1.417,1.783 -2.317,2.596c-14.821,13.379 -42.704,28.105 -58.975,10.866l-0.271,-109.633Zm0.309,126.346c9.633,4.758 20.533,6.458 31.571,3.917c-4.459,43.22 -15.071,82.075 -31.321,120.196l0.008,-18.392l-0.258,-105.721Zm0.045,603.25l0.18,-419.112c7.954,19.904 18.308,38.941 29.616,56.838c0.546,0.861 1.821,0.107 1.359,-0.793c-13.18,-25.666 -23.742,-51.853 -30.963,-79.195l0.004,-14.017c22.817,-44.171 37.554,-95.409 34.225,-143.854c3.696,-1.108 7.388,-2.525 11.042,-4.675c4.787,-2.817 9.162,-6.209 13.346,-9.808c-1.509,11.85 -3.038,23.824 -4.542,35.637c-1.383,10.879 -2.758,21.742 -4.142,32.587c-1.133,10.871 -2.266,21.725 -3.399,32.559c-2.213,21.679 -4.417,43.283 -6.613,64.812c-4.396,43.059 -8.754,85.809 -13.075,128.209c-4.246,42.396 -8.804,84.437 -12.675,126.104c-3.575,41.708 -6.175,83.083 -9.263,124c-1.72,23.833 -3.404,47.167 -5.1,70.708Zm28.488,352.584c3.508,-58.792 7.083,-118.667 10.762,-180.292c3.005,-38.834 6.046,-78.209 9.125,-118.042c2.842,-39.874 5.717,-80.208 8.626,-121c2.349,-31.833 4.52,-64.041 6.975,-96.417c5.787,7.459 13.104,12.626 22.104,14.834c-2.725,29.083 -6.134,58.292 -5.571,87.292c0.296,14.875 -0.421,32.166 3.571,46.666c0.687,2.5 1.795,4.875 2.879,7.292c-9.146,46.875 -17.634,93.167 -24.571,138.917c-3.696,22.499 -7.362,44.791 -10.996,66.917c-1.787,11.083 -3.571,22.082 -5.346,33.041c-1.496,11 -2.991,21.958 -4.479,32.833c-4.033,29.584 -8,58.667 -11.929,87.459c-0.383,0.166 -0.767,0.333 -1.15,0.5Zm6.158,290.166c0.163,-1.625 0.317,-3.208 0.48,-4.875c4.625,-38.042 9.366,-77.125 14.22,-117.083c5.125,-39.917 9.2,-80.917 15.784,-122.458c2.525,-17.501 5.087,-35.25 7.654,-53.042c11.9,-5.542 22.804,-11.625 32.866,-18.792l-21.349,81.417l-26.93,121.375c-4.358,20.25 -9.25,40.417 -13.166,60.75l-9.559,52.708Zm73.734,-326.666c-4.092,3.291 -8.309,6.208 -12.713,8.541c-6.958,3.667 -14.1,6.792 -21.3,9.708c1.079,-7.457 2.184,-15.124 3.271,-22.666c5.783,4.625 12.904,7.166 21.217,5.542c3.595,-0.75 6.979,-2.125 10.233,-3.834l-0.708,2.709Zm-8.204,-13.876c-11.138,3.084 -16.505,-4.125 -19.005,-14.999c0.792,-5.459 1.563,-10.834 2.355,-16.292c1.562,-10.833 3.129,-21.709 4.708,-32.625c1.5,-8.834 3.008,-17.708 4.517,-26.625c15.312,-11.375 29.787,-25.042 43.033,-40.041c2.283,6.291 4.829,12.416 7.654,18.374l-11.392,37.667c-6.15,19.792 -10.746,39.999 -16.208,60l-1.312,4.999c-4.305,4.334 -8.976,8.085 -14.35,9.542Zm41.358,-137.041c5.466,-6.584 10.712,-13.333 15.587,-20.376l-7.075,23.376l-4.25,14.041c-1.562,-5.708 -2.941,-11.375 -4.262,-17.041Zm8.196,98.917c2.391,-9.834 4.871,-19.667 7.746,-29.376l34.158,-118.75l8.546,-29.707c2.879,-9.876 6.346,-19.585 9.491,-29.376l38.659,-117.417c6.108,-19.708 13.771,-38.833 20.833,-58.208l21.533,-57.916l21.53,-57.958l23.62,-57.151l23.742,-57.1c0.512,-1.195 1,-2.404 1.504,-3.6c-8.637,41.596 -15.362,83.808 -25.496,124.725c-18.408,74.292 -39.604,147.917 -65.883,219.875c-26.8,73.375 -54.517,149.167 -91.187,218.333c-8.234,15.5 -17.767,34.876 -28.796,53.626Zm218.312,-676.942c-8.442,17.167 -15.587,34.904 -23.141,52.462c-1.73,-0.538 -3.834,0.076 -4.655,2.346c-9.437,25.975 -20.437,57.262 -41.337,76.551c-33.379,30.832 -59.575,6.291 -63.775,-27.851c27.266,-28.375 49.2,-72.658 63.658,-97.262c22.492,2.162 50.642,-1.909 72.742,-13.659l-3.492,7.413Zm-87.804,-17.413c-0.738,-0.504 -1.292,-1.125 -2,-1.646c4.979,0.492 10.325,0.005 16.321,-2.416c36.583,-14.751 46.233,-50.517 55.304,-86.217c0.471,-1.854 0.904,-3.775 1.367,-5.641c16.916,16.432 36.779,28.166 57.416,26.133c0.188,-0.016 0.338,-0.1 0.525,-0.121l-23.233,49.325c-26.746,27.72 -71.525,43.862 -105.7,20.583Zm132.763,-78.041c-21.634,5.558 -42.392,-6.338 -60.042,-25.012c12.133,-50.318 21.221,-105.134 19.55,-157.035c33.383,21.239 63.521,22.076 90.942,11.18c-1.942,21.592 -1.459,49.155 -3.151,75.95l-11.612,22.525c-9.438,18.412 -19.217,36.663 -27.746,55.521l-7.941,16.871Zm-41.48,-205.087c-34.112,-37.276 -32.712,-97.563 -26.166,-148.005c7.629,-23.212 15.887,-46.467 23.929,-69.709c1.637,2.959 3.717,5.509 5.979,7.863c0.492,54.45 7.117,110.334 15.404,163.533c0.121,0.779 1.446,0.596 1.371,-0.183c-4.829,-52.038 -4.746,-103.621 -5.925,-155.421c10.742,5.263 24.542,6.329 39.821,2.226c7.491,-2.018 14.9,-4.467 22.237,-7.163c2,11.779 4.559,23.466 8.292,34.925c13.4,41.104 60.554,93.062 107.454,83.725c0.296,-0.058 0.221,-0.517 -0.071,-0.517c-62.195,0.041 -98.904,-63.846 -108.883,-120.846c41.992,-16.712 80.65,-43.983 109.754,-78.109c60.679,14.393 134.029,-35.766 175.975,-82.045c-4.179,6.395 -8.554,12.659 -12.612,19.138c-22.321,34.833 -45.142,69.354 -67.046,104.441l-46.675,77.367c-4.134,-1.234 -8.971,0.187 -9.946,5.4c-0.958,5.092 -1.621,10.15 -2.504,15.233l-4.992,8.275c-5.279,8.9 -10.833,17.633 -15.887,26.658l-15.104,27.105l-26.467,47.474c-21.896,19.142 -46.238,42.197 -71.917,55.697c-0.046,-0.634 -0.1,-1.421 -0.146,-2.021c-0.045,-0.563 -0.883,-0.746 -1.029,-0.138c-0.229,0.921 -0.371,2.022 -0.571,2.992c-30.3,15.367 -62.354,16.991 -94.275,-17.895Zm97.013,31.941c18.979,-8.625 36.671,-22.534 53.246,-38.859l-16.296,29.23l-28.354,55.216l-8.217,15.942c1.163,-22.829 0.579,-44.637 -0.379,-61.529Zm282.937,-418.03c-56.208,44.888 -165.383,134.105 -226.987,55.726c-16.938,-21.55 -24.917,-45.601 -27.792,-70.621c36.433,-3.767 73.825,-20.388 102.084,-37.862c25.554,-15.805 48.704,-34.025 69.854,-54.213c4.016,9.175 9.421,17.646 17.225,24.617c34.016,30.391 82.008,26.183 119.225,4.133c-2.509,3.629 -5.025,7.25 -7.538,10.874c-15.466,22.376 -30.916,44.763 -46.071,67.346Zm-69.1,-98.395c-2.621,-4.638 -4.945,-9.787 -6.987,-15.3c28.933,-28.838 53.942,-61.484 75.396,-97.363c58.146,11.196 122.312,-10.062 176.537,-35.879c-19.608,25.909 -39.004,51.975 -57.937,78.388c-19.663,25.821 -38.134,52.499 -56.579,79.195c-42.092,25.972 -102.313,40.63 -130.43,-9.041Zm252.825,-159.029c-80.754,23.62 -180.321,70.875 -249.545,-4.613c-44.751,-48.795 -66.996,-125.317 -48.271,-189.508c0.304,-1.051 0.366,-2.063 0.237,-3.017c0.533,-1.05 1.063,-2.095 1.6,-3.145c13.396,-24.467 26.804,-48.964 40.229,-73.485l0.554,-0.994c28.846,76.916 119.851,106.403 191.005,55.695c1.754,2.575 3.383,5.25 5.241,7.737c21.638,28.967 50.488,44.313 82.105,49.538c6.199,43.421 18.016,79.096 39.737,80.987c-21.242,26.717 -42.208,53.655 -62.892,80.805Zm68.496,-87.85c-21.879,-1.255 -33.783,-37.884 -39.808,-72.917c21.433,2.688 44.004,0.875 66.508,-4.858c16.221,-4.134 33.804,-9.838 50.763,-17.409c-26.192,31.429 -51.95,63.208 -77.463,95.184Zm93.496,-114.663c-30.208,17.08 -65.833,26.838 -95.838,29.391c-14.025,1.193 -27.17,0.163 -39.658,-2.232c-2.604,-19.713 -3.462,-37.059 -3.333,-44.476c1.75,-100.266 18.575,-197.129 44.583,-293.774c20.792,-77.264 52.721,-150.942 74.859,-227.517c0.399,10.163 0.545,20.333 0.058,30.521c-1.888,39.366 -6.596,78.467 -9.067,117.783c-5.258,83.792 5.917,167.133 9.075,250.834c0.038,0.899 1.384,0.904 1.4,-0c1.659,-83.509 -8.142,-167.555 -0.729,-250.834c5.383,-60.462 9.242,-118.6 7.208,-178.042c0.359,-1.438 0.792,-2.854 1.142,-4.3c1.229,3.671 2.429,7.508 3.704,10.85c19.967,52.421 49.529,103.263 99.154,132.472c69.1,40.67 180.138,70.524 263.838,41.716c-94.858,93.8 -186.267,191.067 -274.063,291.417c-27.721,31.82 -55.179,63.879 -82.333,96.191Zm108.479,-438.279c-48.067,-29.592 -80.379,-74.654 -98.204,-128.167c-4.9,-14.712 -8.329,-28.529 -10.537,-41.963c10.962,-35.437 24.383,-70.553 35.383,-106.045c7.279,75.433 59.137,153.763 119.104,186.692c27.517,15.108 55.933,25.854 84.792,32.754c1.508,25.52 2.825,50.829 3.687,75.796c0.159,4.503 6.871,4.512 6.996,0c0.667,-24.467 0.925,-48.922 0.967,-73.371c84.825,17.167 172.966,1.662 253.3,-36.059c-26.292,24.318 -52.475,48.75 -78.35,73.501c-17.288,16.462 -34.205,33.308 -51.259,50.012c-83.45,33.146 -193.304,11.52 -265.879,-33.15Zm407.783,-101.895c-84.812,31.874 -177.629,55.129 -265.662,35.007c-0.092,-65.52 -1.629,-131.008 -1.979,-196.583c-0.479,-91.521 8.087,-181.462 12.45,-272.513c37.458,55.638 102.812,76.838 172.204,72.426c-23.787,45.937 -43.458,93.875 -52.342,144.941c-15.908,91.496 72.038,198.155 161.888,192.98c-8.779,7.991 -17.821,15.703 -26.559,23.742Zm57.621,-51.513c-67.358,29.642 -157.05,-33.675 -175.17,-101.101c-18.067,-67.208 17.091,-144.179 47.329,-202.62c0.35,-0.676 0.737,-1.321 1.087,-1.992c25.946,20.4 54.688,36.613 84.404,46.362c117.713,38.625 241.713,24.801 357.959,-12.37c0.833,1.083 1.871,2.013 2.729,3.079l-94.608,75.683c-76.134,62.513 -150.467,127.15 -223.73,192.959Zm323.621,-287.772c-34.692,-49.507 -40.241,-117.504 -39.329,-177.087c100.875,26.2 215.567,22.888 310.675,-9.137l-25.217,17.488l-50.275,36.537c-33.391,24.533 -67.246,48.425 -99.983,73.833c-21.7,16.638 -43.508,33.137 -65.225,49.742c-10.217,2.891 -20.429,5.771 -30.646,8.624Zm311.388,-213.845c-105.467,43.234 -238.18,51.492 -350.325,19.554c2.871,-87.875 15.966,-175.117 43.325,-258.879c2.312,-7.092 4.85,-14.171 7.254,-21.258c41.304,60.95 98.946,96.179 172.446,112.108c48.196,10.446 101.416,16.437 155.825,16.825c-1.167,37.287 -0.575,74.437 1.083,111.508c-9.85,6.746 -19.792,13.354 -29.608,20.142Zm31.954,-186.062c-1.371,13.749 -2.433,27.558 -3.075,41.441c-38.596,-0.275 -76.546,-3.504 -112.692,-9.666c-74.033,-12.621 -150.954,-36.671 -194,-103.264c-5.304,-8.204 -10.042,-16.541 -14.45,-24.953c18.175,-51.655 38.379,-103.083 59.229,-153.413c11.392,-27.504 25.6,-66.666 45.417,-99.717c11.571,-7.825 23.133,-15.591 34.833,-23.032c4.355,-2.776 8.634,-5.505 12.975,-8.276c-24.396,45.4 -30.371,103.671 -20.521,150.813c15.488,74.158 58.263,142.108 118.538,188.254c23.217,17.775 48.042,31.321 73.746,41.813Zm-45.604,-46.197c-58.571,-43.437 -107.838,-106.77 -122.784,-179.508c-7.258,-35.341 -8.846,-73.029 2.55,-107.799c10.025,-30.592 27.596,-52.642 43.825,-79.08c51.663,-32.084 102.875,-62.688 153.73,-91.775c-13.184,74.783 -14.392,150.491 -36.238,224.479c-0.771,2.617 3.187,3.658 4.046,1.117c25.041,-74.183 43.35,-156.091 48.383,-234.842c16.263,-9.204 32.496,-18.295 48.679,-27.154c0.042,0.162 0,0.292 0.05,0.458c14.992,49.484 -9.479,110.876 -21.329,159.538c-11.304,46.42 -21.308,93.096 -30.962,139.88c-15.338,74.312 -33.346,147.924 -42.371,223.074c-16.142,-7.737 -32.067,-16.883 -47.579,-28.388Zm49.962,207.559c-0.691,-35.704 0.375,-71.4 2.7,-107.084c53.046,-0.328 106.925,-5.995 158.263,-18.157c0.604,5.779 1.02,11.579 1.987,17.32c-54.729,35.342 -109.154,71.158 -162.95,107.921Zm156.008,-137.029c-50.083,10.837 -101.679,16.416 -152.491,16.795c0.454,-5.804 0.529,-11.611 1.083,-17.416c0.609,-6.379 1.463,-12.746 2.179,-19.117c47.63,17.409 98.359,22.98 149.229,19.738Zm12.646,-142.321c-4.512,41.788 -10.75,84.583 -9.904,126.813c-51.012,4.312 -101.662,-0.772 -150.017,-21.384c12.926,-102.375 38.176,-204.038 61.201,-304.33c11.337,-49.391 24.733,-98.224 35.916,-147.628c6.259,-27.646 11.142,-52.671 0.759,-79.734c-0.53,-1.379 -1.367,-2.354 -2.305,-3.158c3.179,-1.724 6.379,-3.554 9.559,-5.262c9.908,-5.442 19.779,-10.854 29.608,-16.25c9.933,-5.184 19.829,-10.346 29.679,-15.488c2.767,-1.433 5.467,-2.829 8.225,-4.267c-15.721,24.68 -25.591,54.017 -29.837,79.605c-10.259,61.816 3.787,130.541 31.075,186.395c7.695,15.759 16.712,30.405 26.816,44.005c-20.425,51.633 -34.729,104.691 -40.775,160.683Zm5.15,125.367c-2.133,-52.775 5.321,-108.092 13.73,-156.796c6.916,-40.055 17.858,-79.008 32.024,-116.804c31.1,36.958 71.371,64.683 119.526,80.662c49.549,16.446 109.554,28.146 167.137,30.225c-46.7,26.637 -93.154,53.721 -139.329,81.279c-33.988,20.33 -67.792,40.967 -101.425,61.883c-30.342,9.051 -61.034,15.854 -91.663,19.551Zm1.913,24.945c12.625,-3.332 25.083,-7.004 37.291,-11.166c-11.974,7.683 -23.895,15.442 -35.866,23.133c-0.563,-3.958 -0.95,-7.979 -1.425,-11.967Zm362.7,-205.632c-53.271,-6.276 -108.279,-4.934 -160.534,-19.917c-58.62,-16.805 -113.22,-46.138 -149.67,-94.197c10.212,-24.575 21.396,-48.774 34.595,-72.104c14.08,-24.879 29.45,-48.716 45.371,-72.121c3.988,8.621 8.413,17.163 13.255,25.596c44.575,77.642 114.283,143.247 203.116,165.297c42.371,10.516 83.225,12.007 123.146,6.466c-36.608,19.996 -72.954,40.467 -109.279,60.98Zm134.95,-75.051c-138.046,18.888 -275.604,-42.604 -340.8,-178.329c-4.058,-8.45 -7.479,-16.829 -10.592,-25.171c11.888,-16.809 24.158,-33.317 36.621,-49.679c23.192,30.991 51.808,56.454 81.983,70.254c93.963,42.987 198.288,26.35 289.284,-16.171c78.666,35.166 175.025,52.529 260.141,36.508c-63.391,30.938 -126.5,62.464 -189.158,94.889c-42.713,22.141 -85.167,44.786 -127.479,67.699Zm46.087,-203.841c-76.6,31.954 -169.412,50.87 -249.008,20.475c-37.813,-14.438 -75.242,-43.901 -103.692,-80.429c42.871,-55.663 87.767,-109.822 130.034,-166.338c18.745,79.754 112.771,158.104 168.67,195.829c16.434,11.092 34.671,21.25 53.996,30.463Zm-220.616,-287.001c-5.73,16.38 -6.509,33.142 -4.046,49.917c-46.371,52.305 -93.879,106.563 -137.938,163.425c-14.558,-21.329 -26.216,-44.45 -32.775,-68.396c8.93,-17.637 21.584,-34.617 38.471,-50.775c32.617,-31.212 71.475,-55.104 107.683,-81.908c9.605,-4.117 19.121,-8.2 28.605,-12.263Zm-134.734,60.384c-17.366,16.233 -32.995,33.334 -45.65,51.3c-0.75,-10.004 -0.783,-20 0.459,-29.925c9.462,-4.529 18.958,-9.23 28.4,-13.562c5.621,-2.705 11.179,-5.176 16.791,-7.813Zm-46.75,100.025c7.471,22.141 18.375,43.638 31.434,63.437c-11.271,14.783 -22.325,29.704 -32.996,44.846c-10.838,-37.721 -11.275,-74.137 1.562,-108.283Zm-8.662,-33.825c-30.608,52.737 -28.463,109.458 -7.483,163.812c-27.975,41.492 -53.475,84.204 -74.18,128.676c-2.97,6.375 -5.4,12.858 -8.179,19.266c-3.5,-5.458 -7.05,-10.863 -10.091,-16.771c-26.538,-51.608 -43.051,-112.433 -37.721,-170.842c2.654,-29.112 9.408,-59.575 26.158,-84.128c16.913,-24.788 39.746,-36.689 62.325,-54.859c0.667,-0.538 1.079,-1.129 1.492,-1.717c15.012,-7.399 30.108,-14.879 44.97,-22.088c-0.512,12.685 0.446,25.63 2.709,38.651Zm-437.134,141.953c-8.77,5.305 -17.52,10.459 -26.304,15.859c-62.987,38.429 -125.929,79.837 -188.916,123.513c-3.979,-2.075 -9.48,-1.771 -12.025,2.804c-1.496,2.679 -2.455,5.6 -3.817,8.345c-14.733,10.305 -29.471,20.588 -44.217,31.13c-20.504,15.2 -41.116,30.483 -61.837,45.842c-1.188,0.883 -2.384,1.775 -3.567,2.658c-100.462,34.983 -221.871,-25.8 -281.383,-117.834c65.975,-9.437 129.696,-29.783 186.687,-64.466c144.021,12.417 295.4,-4.325 435.379,-47.851Zm-444.895,46.964c-60.205,24.72 -122.759,41.583 -186.3,50.087c-16.584,-30.092 -26.825,-62.833 -27.463,-96.467c25.333,9.388 51.184,17.588 77.529,23.925c44.171,10.621 89.809,18.025 136.234,22.455Zm-230.563,-52.413c-0.171,33.833 11.088,69.937 30.033,104.258c-78.95,8.971 -159.249,4.783 -238.395,-13.854c20.116,-10.192 39.587,-21.329 57.329,-34.462c29.516,-21.842 72.612,-59.821 63.029,-100.851c27.713,17.639 57.279,32.505 88.004,44.909Zm-94.229,-48.859c-3.312,64.164 -59.788,107.463 -124.946,136.705c-0.779,-0.196 -1.558,-0.38 -2.337,-0.555c-2.534,-87.545 -3.563,-175.062 4.075,-262.529c5.512,9.679 11.408,19.096 17.908,27.967c29.246,39.892 65.283,72.054 105.3,98.412Zm-135.817,-150.737c-11.32,90.642 -10.025,181.621 -5.466,272.7c-97.784,-150.15 -130.792,-351.779 -8.625,-493.625c-12.621,39.434 -17.342,78.692 -12.55,124.141c1.033,9.818 2.733,19.638 4.758,29.434c-6.375,58.196 -0.892,120.846 -0.054,178.404c0.054,3.613 5.5,3.6 5.596,0c1.087,-40.67 7.825,-83.571 10.316,-125.787c1.959,4.933 3.821,9.908 6.025,14.733Zm-37.991,-222.084c-115.817,142.309 -80.667,353.305 20.695,501.821c-104.304,-30.962 -181.754,-81.22 -244.508,-160.366c15.209,-96.433 59.671,-194.321 127.863,-258.054c1.541,-1.442 2.191,-3.163 2.308,-4.892c14.958,-13.938 29.45,-27.537 44.392,-39.158c16.97,-13.512 32.258,-27.692 48.483,-38.788c0.258,-0.195 0.504,-0.366 0.767,-0.563Zm-193.375,179.33c-8.046,16.092 -15.371,32.404 -22.205,48.275c-11.916,27.683 -21.708,56.704 -28.708,86.358c-9.179,-13.196 -18.029,-27.171 -26.616,-41.829c3.145,-4.07 6.491,-8.4 9.604,-12.429c4.496,-5.725 8.725,-11.617 13.35,-17.092c4.679,-5.429 9.329,-10.816 13.937,-16.158c9.229,-10.7 18.321,-21.237 27.263,-31.612c4.475,-5.188 8.908,-10.338 13.312,-15.442c0.021,-0.025 0.042,-0.046 0.063,-0.071Zm-55.975,159.225c-5.429,30.796 -7.613,62.087 -5.029,93.262c3.737,45.143 14.908,88.167 32.445,128.101c-75.537,-11.042 -144.437,-48.867 -166.591,-124.088c1.508,-2.433 3.029,-4.888 4.533,-7.308c4.496,-6.812 9.242,-13.4 13.812,-20.054c18.425,-26.53 36.421,-52.447 53.967,-77.713c11.871,-15.363 23.204,-30.021 34.683,-44.875c9.705,18.613 20.425,36.192 32.18,52.675Zm33.808,234.262c0.583,1.205 1.258,2.363 1.854,3.559c-21.904,135.358 14.033,294.3 127.75,380.695c47.317,35.947 111.329,55.701 176.429,57.913c-117.395,8.026 -239.808,-16.558 -337.716,-65.863c-15.221,-7.666 -29.459,-16.191 -43.171,-25.17c-0.134,-1.134 -0.3,-2.225 -0.429,-3.358c-0.313,-2.738 -2.842,-4.525 -5.467,-3.138l-2.208,1.166c-56.292,-38.904 -98.446,-90.186 -120.109,-159.791c-13.225,-42.479 -23.433,-87.458 -27.675,-131.808c-4.808,-50.201 5.463,-88.775 23.78,-135.059c0.299,-0.762 0.283,-1.412 0.399,-2.117c5.834,-9.375 11.596,-18.637 17.355,-27.895c20.608,66.838 107.466,101.195 189.208,110.866Zm-222.304,202.442c27.746,74.729 75.179,130.466 140.491,170.229c6.659,60.138 18.471,125.979 44.267,183.825c-27.396,-14.503 -53.383,-31.546 -76.9,-48.767c-88.4,-64.716 -146.875,-141.921 -164.671,-251.87c-9.641,-59.562 -13.15,-120.379 -7.891,-180.596c0.833,-9.529 2.462,-18.913 4.375,-28.242c7.329,-13.067 14.633,-26.096 21.854,-38.962c1.475,-2.612 2.908,-5.163 4.379,-7.771c-7.088,68.079 12.633,144.337 34.096,202.154Zm-259.25,261.3c22.817,-54.275 45.2,-107.621 69.908,-158.654c8.063,-17.633 16.079,-35.145 24.038,-52.533c3.962,-8.7 7.916,-17.367 11.85,-26.004c4.304,-8.451 8.596,-16.872 12.866,-25.259c16.992,-33.596 33.734,-66.683 50.192,-99.216c4.942,-10.463 10.546,-20.45 16.188,-30.372c-1.996,12.85 -3.455,25.946 -3.825,39.596c-1.663,60.971 1.258,123.475 16.141,182.929c25.55,102.046 88.092,177.847 175.646,235.684c25.25,16.68 52.6,33.488 81.229,47.517c14.646,27.741 32.938,53.125 56.188,74.287c27.75,25.263 69.045,49.466 107.987,52.058c-1.854,0.905 -3.679,1.658 -5.541,2.575c-38.709,19.012 -75.259,28.572 -118.313,32.246c-84.446,7.208 -170.667,3.542 -252.721,-19.22c-63.404,-17.588 -138.071,-40.879 -186.7,-87.738c-45.662,-44 -57.496,-106.413 -55.133,-167.896Zm-98.646,266.258c16.492,37.705 56.721,68.847 96.208,62.038c32.117,-5.538 55.559,-26.2 73.117,-53.15c8.742,-13.421 25.013,-34.813 28.475,-53.354c29.829,16.216 62.133,28.483 93.817,38.729c54.583,17.642 110.958,28.554 167.904,32.654c-74.358,39.855 -101.138,138.692 -175.1,181.571c-47.421,27.491 -101.804,50.263 -158.175,63.991c-39.017,-30.749 -75.229,-66.299 -98.492,-109.745c-28.771,-53.737 -32.679,-106.725 -27.754,-162.734Zm393.838,854.163c-74.021,40.533 -159.513,19.742 -182.242,-63.446l13.483,-24.309c6.729,-12.262 13.55,-24.479 20.871,-36.416c14.342,-24.037 28.696,-48.096 43.058,-72.158l21.542,-36.1l22.646,-35.437l36.437,-56.972c-33.104,107.917 -31.766,239.092 24.205,324.838Zm-354.996,-568.492c3.054,-19.845 6.316,-39.75 9.516,-59.725c15.613,18.438 32.867,36.162 51.588,52.276c-20.292,3.853 -40.729,6.286 -61.104,7.449Zm70.929,0.559c28.483,23.141 59.396,42.762 91.129,55.846c73.062,30.125 160.154,37.087 232.442,0.758c3.666,-1.842 21.537,-10.034 38.92,-19.767c-8.216,11.921 -16.429,23.838 -24.654,35.767c-15.95,23.237 -30.745,47.271 -46.175,70.875l-22.925,35.55c-7.646,11.846 -15.371,23.642 -22.495,35.82l-6.196,10.259c-46.034,53.12 -108.75,85.137 -183.846,85.137c-67.879,0.004 -110.95,-30.449 -127.425,-97.6c-16.854,-68.683 -11.167,-135.654 -1.196,-202.966c24.225,-1.358 48.471,-4.617 72.421,-9.679Zm671.208,-359.242c-2.258,-0.179 -4.579,0.662 -6.508,3.142c-58.404,75.112 -153.092,-12.446 -193.171,-70.017c53.229,21.512 109.829,30.7 165.121,9.77c52.554,-19.895 101.583,-50.179 153.542,-72.366c-40.359,42.084 -79.888,85.454 -118.984,129.471Zm265.167,29.838c-65.138,1.612 -126.058,-17.446 -159.129,-80.359c3.545,-3.688 6.979,-7.491 10.596,-11.1c19.05,-19.52 38.062,-38.996 57.02,-58.417c3.438,-3.562 7.034,-6.95 10.53,-10.441c4.212,60.083 36.17,117.12 80.983,160.317Zm21.196,-5.884c-49.192,-43.646 -81.854,-102.741 -83.95,-172.504c9.779,-9.421 19.608,-18.767 29.266,-28.25c38.321,-37.992 78.417,-73.634 117.625,-109.629c19.642,-17.959 40.071,-34.892 59.946,-52.288c13.592,-11.729 27.15,-23.4 40.821,-34.883c1.587,41.258 12.117,77.792 29.321,109.871c-60.188,70.221 -109.921,147.154 -157.504,226.329c-12.092,20.125 -24.092,40.571 -35.525,61.354Zm14.925,2.833c23.625,-42.47 49.725,-83.366 73.483,-125.795c31.542,-56.338 73.858,-105.171 107.162,-160.125c34.767,61.596 94.917,106.037 166.484,133.537c-34.567,17.529 -63.117,43.684 -96.775,63.425c-50.729,29.754 -108.263,53.3 -164.542,70.313c-27.166,8.212 -56.471,14.92 -85.812,18.645Zm421.883,45.484c-99.879,27.321 -200.183,48.329 -305.087,21.067c-40.15,-10.434 -77.701,-28.129 -109.988,-51.642c65.954,-10.88 128.437,-34.221 189.188,-61.826c59.375,-26.974 106.687,-67.349 161.095,-101.699c6.58,2.349 13.488,4.116 20.225,6.192c-0.887,69.562 10.625,136.621 44.567,187.908Zm-653.342,-774.951c0.6,0.13 1.184,0.292 1.784,0.417c80.346,16.934 166.883,23.754 250.458,13.784c58.137,92.242 170.742,166.262 266.958,137.27c-9.866,7.729 -19.754,15.484 -29.662,23.251c-5.179,4.071 -10.367,8.25 -15.563,12.321c-155.279,40.762 -322.375,-19.409 -436.833,-142.226c-13.083,-14.037 -25.371,-29.158 -37.142,-44.817Zm-7.683,10.626c8.554,10.65 17.304,21.054 26.604,30.683c114.792,118.909 284.325,193.68 441.004,156.854c-10.675,8.392 -21.379,16.655 -31.941,25.292c-9.467,7.912 -19.017,15.896 -28.521,23.842c-124.921,60.212 -274.525,55.967 -403.433,3.904c1.833,-80.205 -1.18,-160.405 -3.713,-240.575Zm138.592,479.834c-0.609,0.616 -1.25,1.187 -1.859,1.803c-15.42,15.033 -30.629,30.405 -45.812,45.809c-19.813,10.637 -40.838,19.699 -62.817,29.304c-40.05,17.5 -77.371,40.458 -117.133,58.4c-60.992,27.529 -125.95,15.879 -185.717,-10.942c-34.021,-60.733 -49.912,-122.758 -59.446,-190.017c9.388,5.308 19.054,10.363 29.138,15.051c100.837,46.858 213.617,69.558 324.887,63.166c36.884,-2.121 78.413,-4.867 118.759,-12.574Zm-281.467,-462.409c-31.133,7.02 -65.492,9.771 -99.533,7.604c-19.875,-40.304 -32.246,-84.283 -34.288,-130.963c-0.916,-20.987 -0.1,-42.662 2.163,-64.558c64.466,76.046 152.05,125.976 251.566,152.475c-42.808,16.629 -86.758,27.966 -119.908,35.442Zm129.579,-30.538c4.713,83.842 11.063,167.742 11.717,251.513c-35.413,-14.725 -69.292,-32.871 -100.484,-54.542c-54.962,-38.183 -102.399,-88.179 -133.979,-146.47c32.329,1.741 62.513,-0.384 85.709,-5.95c45.32,-10.876 92.7,-24.996 137.037,-44.551Zm10.992,317.629c-0.079,2.263 3.358,2.234 3.496,0c0.862,-14.22 1.487,-28.441 1.979,-42.662c118.583,45 255.558,55.82 367.392,5.458c-18.98,15.713 -37.43,32.171 -56.042,48.592c-19.913,17.821 -40.384,35.179 -60.054,53.563c-16.896,15.854 -33.955,31.687 -50.959,47.624c-110.341,57.9 -256.791,61.967 -350.637,-27.908c-92.658,-88.742 -123.725,-221.708 -111.817,-346.479c28.296,55.546 69.05,104.508 121.029,143.025c39.838,29.516 86.475,54.834 136.421,74.25c-0.071,14.85 -0.291,29.695 -0.808,44.537Zm669.446,-202.404c35.862,-25.162 71.204,-50.479 107.183,-73.92c0.504,-0.334 0.992,-0.672 1.492,-1.004c-9.321,18.416 -17.055,36.749 -23.6,51.612c-23.321,52.954 -46.6,107.546 -66.688,162.725c-18.912,-44.792 -25.454,-91.929 -18.387,-139.413Zm9.375,164.572c-6.267,18.316 -12.267,36.669 -17.513,55.065c-18.154,63.651 -38.625,151.35 -42.108,237.375c-114.413,-38.77 -202.979,-121.941 -210.759,-255.795c0.405,-0.32 0.792,-0.671 1.196,-0.992c20.284,-16.583 40.484,-33.095 60.592,-49.537c20.467,-15.992 40.837,-31.917 61.108,-47.763c10.138,-7.928 20.25,-15.834 30.342,-23.72c10.275,-7.634 20.525,-15.255 30.754,-22.855c17.854,-13.2 35.592,-26.312 53.284,-39.396c-3.946,50.938 8.279,103.826 33.104,147.618Zm-658.967,864.315c-17.329,-4.807 -34.471,-11.182 -51.279,-19.795c-81.584,-41.825 -151.396,-141.437 -130.634,-235.379c34.409,-42.912 71.35,-83.467 107.063,-124.742c8.929,-10.483 18.458,-20.416 27.771,-30.517l20.858,-22.624c-4.5,48.604 -4.783,98.821 -3.512,147.404c0.012,0.574 0.812,0.55 0.875,-0c5.866,-51.917 18.775,-106.147 14.22,-158.521c-0.037,-0.421 -0.345,-0.572 -0.445,-0.942c6.966,-7.504 13.912,-15.017 20.858,-22.517c-30.592,149.843 -15.287,312.625 -5.775,467.633Zm-232.892,-193.049c3.921,-4.78 7.83,-9.546 11.75,-14.325c-6.246,23.321 -12.987,46.533 -20.054,69.671c0.375,-18.03 3.167,-36.113 8.304,-55.346Zm-32.875,-20.017c-16.733,22.529 -33.491,45.079 -50.266,67.658l-25.013,33.988l-24.05,34.721c-3.042,4.412 -6.087,8.833 -9.129,13.245c-25.142,13.805 -73.946,38.409 -81.125,40.213c-79.796,20.066 -165.913,10.129 -234.75,-37.579c-11.529,-7.992 -23.104,-16.383 -34.546,-25.08c37.317,-9.836 73.617,-23.437 107.613,-39.528c45.141,-21.371 82.687,-45.626 112.845,-85.726c33.284,-44.257 63.038,-98.158 111.776,-127.129c36.479,2.167 73.166,1.479 109.758,-2.221c36.996,-3.741 74.433,-7.554 108.429,-23.775c18.5,-8.829 36.25,-19.02 53.983,-29.233c0.288,-0.058 0.571,-0.103 0.855,-0.166c-31.742,37.766 -64.055,75.233 -94.313,114.575c-17.329,21.983 -34.688,43.996 -52.067,66.037Zm-113.075,747.838c-30.908,-7.213 -56.337,-25.417 -74.604,-52.226c-0.087,-0.449 -0.162,-0.578 -0.579,-0.799c-7.092,-10.567 -13.183,-22.33 -17.917,-35.45c-20.491,-56.817 -25.108,-118.292 -19.533,-178.221c6.483,-69.646 28.1,-126.425 55.979,-187.379l0.529,-0.775c16.017,-22.992 31.388,-46.413 47.9,-69.017c16.55,-22.571 33.092,-45.129 49.621,-67.67l24.854,-33.735l25.759,-32.999c8.121,-10.5 16.221,-20.975 24.333,-31.467c-0.779,13.562 0.196,27.542 2.163,41.233c-0.617,11.971 -0.367,23.917 0.191,35.85c-50.233,154.392 -108.196,307.117 -122.096,469.838c-0.837,9.767 -3.591,80.796 3.4,142.817Zm-284.854,-133.196c0.321,2.891 1.009,5.558 1.483,8.362l-9.716,18.567c-4.775,9.025 -9.538,18.03 -14.308,27.045c-71.28,63.2 -177.234,62.955 -254.08,5.084c-45.795,-34.487 -66.733,-77.595 -79.829,-125.929c42.792,38.333 112.8,58.409 162.867,62.337c72.254,5.671 163.616,-3.208 227.25,-47.124c-0.783,1.392 -1.571,2.787 -2.35,4.179c-7.038,12.17 -13.575,24.608 -20.021,37.091l-3.537,6.754c-3.105,-2.179 -8.28,-1.058 -7.759,3.634Zm-483.079,400.358c5.596,-35.691 11.196,-71.392 16.796,-107.1l10.696,-67.154l5.083,-31.929c18.537,59.758 76.95,102.346 139.971,115.045c19.9,4.009 42.283,5.892 64.967,5.063c-27.663,34.912 -58.975,67.305 -99.742,87.101c-43.6,21.174 -84.375,22.07 -129.85,21.533c-2.817,-7.109 -5.4,-14.633 -7.921,-22.559Zm-7.258,46.15c0.375,0.709 0.941,1.308 1.333,2.013c14.875,46.128 41.092,92.633 69.688,127.529c-13.151,9.095 -28.413,16.166 -44.496,10.329c-15.617,-5.667 -27.075,-17.308 -32.625,-33.009c-2.709,-7.666 -4.28,-15.478 -5.575,-23.332c1.512,-11.797 3.029,-23.584 4.55,-35.393c1.945,-16.108 4.554,-32.116 7.125,-48.137Zm-26.925,199.721c3.716,-28.1 7.429,-56.166 11.154,-84.345c0.346,-2.688 0.692,-5.38 1.037,-8.067c4.559,11.158 11.029,21.046 20.009,27.853c21.071,15.967 49.462,14.104 67.971,-3c2.425,2.896 4.837,5.872 7.287,8.588c12.329,13.671 28.5,28.15 46.392,39.333c-9.575,4.788 -19.384,9.059 -29.696,12.054c-34.433,10.001 -81.234,24.925 -119.858,18.846c-1.509,-3.708 -3.109,-7.366 -4.296,-11.262Zm-23.771,182.75l3.667,-33.292l4.47,-33.233c3.025,-22.179 6.046,-44.392 9.08,-66.638c0.658,-4.987 1.324,-10.012 1.983,-15.003c10.529,18.329 25.783,34.316 43.641,46.008c-11.704,43.166 -9.274,111.399 11.988,158.795c-13.108,18.109 -34.088,41.496 -56.888,39.776c-14.475,-1.092 -22.108,-9.522 -26.512,-20.422c2.854,-25.296 5.7,-50.549 8.571,-75.991Zm-56.383,-243.725c22.366,-1.813 40.85,-12.475 55.425,-28.692c-5.876,34.971 -11.317,69.854 -16.867,104.763c-2.358,1.77 -4.529,3.724 -7.363,5.034c-18.145,8.365 -37.633,2.866 -51.47,-10.159c11.429,-23.3 22.304,-49.554 20.275,-70.946Zm-25.446,65.446c-1.446,-1.771 -2.888,-3.55 -4.134,-5.504c-13.996,-21.971 -15.216,-46.925 -16.821,-72.025c11.963,8.075 25.488,12.883 40.576,12.791c0.816,-0.008 1.529,-0.254 2.333,-0.283c-6.196,20.875 -13.275,43.041 -21.954,65.021Zm-18.238,93.991c-4.983,-5.733 -9.396,-12.196 -13.529,-18.891c8.054,-12.617 15.304,-25.929 22.171,-40.1c3.496,-7.217 7.808,-15.475 12.208,-24.263c4.742,4.325 9.996,8.217 16.508,10.975c15.201,6.451 30.726,3.988 43.663,-3.504c-2.637,16.654 -5.512,33.363 -8.05,49.992c-2.988,7.933 -6.242,15.67 -9.546,23.354c-16.254,16.246 -46.8,21.562 -63.425,2.437Zm40.4,707.526c-0.662,-5.709 -1.1,-11.417 -1.3,-17.084c2.533,-28.25 5.046,-56.445 7.629,-85.037c0.9,-10.217 1.821,-20.642 2.725,-30.904c6.346,8.791 14.204,15.875 23.946,20.004c8.063,3.417 16.538,4.075 24.984,2.821c-12.5,40.649 -29.396,79.282 -57.984,110.2Zm17.617,33.208c-0.171,3.167 -0.504,6.375 -0.734,9.583c-5.695,-3.375 -10.504,-10.625 -13.558,-23.417c-0.883,-3.666 -1.383,-7.375 -1.992,-11.041c31.109,-29.876 52.601,-77.488 61.396,-119.483c9.234,-2.197 18.296,-6.684 26.713,-12.784c-1.117,4.125 -2.313,8.259 -3.342,12.396c-2.925,12.162 -5.846,24.283 -8.754,36.375c-8.229,35.121 -16.304,69.537 -24.383,103.996c-11.171,12 -23.513,18.916 -33.542,15.167c-0.233,-3.626 -0.208,-7.209 -0.579,-10.792c-0.083,-0.792 -1.179,-0.792 -1.225,-0Zm4.483,142.917c-2.279,-7.375 -3.891,-15.001 -3.937,-23.125c-0.163,-28.792 2.321,-57.501 2.229,-86.209c9.233,0.875 17.575,-1.709 25.129,-6.208c-0.596,2.541 -1.217,5.208 -1.813,7.75c-7.254,36.333 -14.524,72.167 -21.608,107.792Zm38.425,196.875c-11.104,13.291 -23.067,26 -36.225,37.916c3.3,-19.166 6.613,-38.375 9.963,-57.833c3.816,-22.334 7.662,-44.833 11.55,-67.583c0.179,-1.125 0.412,-2.25 0.596,-3.417c1.312,30.417 5.262,61.75 14.116,90.917Zm68.684,-147.75l-13.217,38.333c-3.296,9.833 -6.913,19.541 -9.946,29.417l-6.888,22.75c-9.012,17.416 -19.695,33.666 -31.729,49.042c-7.445,-36.792 -10.92,-73.459 -15.066,-112.168c5.854,3.083 12.75,4.626 20.879,3.876c21.979,-2.001 40.85,-15.334 55.967,-31.25Zm46.837,-131.751c-6.738,17.459 -13.783,34.834 -19.579,52.626l-12.892,37.417c-13.708,19.791 -27.804,39.166 -51.137,50.124c-19.8,9.292 -30.667,5.667 -36.525,-3.875c0.837,-4.25 1.641,-8.5 2.483,-12.792c3.162,-16.291 6.433,-33.125 9.629,-49.625c20.2,13.126 55.55,-13.291 69.596,-27.125c14.204,-14.041 27.558,-29.749 38.425,-46.75Zm31.662,-81.749l-7.079,18.291l-4.991,12.876c-0.188,-0.543 -0.234,-1.167 -0.492,-1.709c-0.242,-0.5 -1.125,-0.542 -1.358,-0c-9.284,20.916 -17.621,39.708 -29.7,57.708c-10.7,-7.999 -19.171,-17.5 -25.538,-28.333c10.504,-14.083 19.55,-29.708 27.975,-45.291c14.179,-0.543 28.483,-5.584 41.183,-13.542Zm-38.683,-67.708c24.142,32.541 51.825,12.999 73.146,-16.418l-19.112,44.501l-5.667,14.625c-5.542,5.167 -11.638,9.791 -18.917,13.208c-24.829,11.667 -61.6,13.125 -71.7,-19.042c-5.287,-16.833 -4.696,-33.791 -2.533,-50.804c11.162,-2.4 21.771,-8.833 31.754,-17.63c2.146,11.647 6.221,22.392 13.029,31.56Zm45.834,-138.276c2.883,0.7 6.399,0.816 9.612,1.233c-20.158,23.655 -37.725,60.88 -60.917,86.572c0.338,-36.993 8.863,-72.813 17.946,-108.451c9.108,10.051 20.204,17.45 33.359,20.646Zm57.354,-126.271c-4.238,15.663 -9.092,30.967 -14.992,45.451c-13.758,33.787 -58.054,64.991 -75.154,12.154c-3.15,-9.734 -6.071,-19.467 -7.792,-29.576c-0.4,-2.328 -0.537,-4.666 -0.871,-6.995c-0.083,-1.113 -0.204,-2.229 -0.283,-3.342c5.233,-19.221 10.463,-38.454 15.733,-57.821c6.775,-24.929 13.584,-49.975 20.417,-75.133c2.8,-10.488 5.942,-20.9 9.096,-31.317c0.733,32.534 5.842,64.717 18.796,93.138c7,15.354 19.425,35.979 35.05,53.441Zm-17.379,-237.708c3.208,28.671 15.962,59.433 39.749,77.192c-2.416,49.312 -7.654,103.137 -20.27,153.012c-22.429,-27.605 -38.55,-64.809 -42.517,-86.283c-4.933,-26.713 -6.021,-53.017 -5.421,-79.383c1.775,-5.792 3.575,-11.559 5.292,-17.38c6.854,-23.125 13.954,-46.304 21.208,-69.5c0.521,7.837 1.188,15.446 1.959,22.342Zm26.137,-168.821c-21.937,58.683 -42.967,117.213 -63.012,175.521c-14.917,20.95 -33.988,37.967 -50.988,18.233c-10.467,-12.15 -15.537,-25.712 -19.688,-40.245c26.055,-39.597 41.363,-90.359 54.338,-131.942c25.667,-1.358 56.937,-7.329 79.35,-21.567Zm-145.796,8.884c14.975,7.596 31.238,12.304 47.871,12.937c5.142,0.196 10.925,0.092 16.933,-0.179c-18.166,41.071 -31.5,84.629 -55.133,123.046c-0.133,-0.509 -0.283,-0.996 -0.417,-1.509c-12.033,-45.733 -13.083,-88.374 -9.254,-134.295Zm-88.837,213.095c1.158,-10.292 2.329,-20.675 3.491,-30.984c10.955,16.047 28.663,23.847 52.134,9.255c13.779,-8.563 25.533,-19.95 35.816,-33.029c5.063,9.9 10.946,18.788 17.884,25.967c23.804,24.642 42.646,14.995 57.583,-4.121c-2.15,6.317 -4.483,12.675 -6.604,18.983c-8.279,25.087 -17.329,49.834 -24.879,74.908c-1.392,4.55 -2.763,9.042 -4.15,13.584c-10.321,5.321 -21.292,9.738 -32.38,12.467c-0.808,-0.9 -2.35,-0.98 -2.891,0.358c-0.046,0.112 -0.088,0.225 -0.134,0.338c-25.662,5.562 -51.641,1.499 -71.224,-23.038c-15.917,-19.942 -20.455,-42.03 -24.646,-64.688Zm-22.896,209.017c0.941,-10.391 1.887,-20.804 2.833,-31.229c1.225,-10.825 2.45,-21.667 3.683,-32.525c3.546,-31.446 7.125,-63.171 10.696,-94.875c10.18,19.079 24.538,35.171 42.93,44.817c-10.038,32.353 -20.025,77.391 -13.042,114.891c-7.292,5.475 -15.421,9.354 -24.396,9.109c-10.479,-0.284 -17.617,-4.238 -22.704,-10.188Zm68.083,-19.871c-3.596,4.2 -7.667,8.834 -12.104,13.213c-0.558,-3.938 -0.958,-7.846 -1.229,-11.633c-2.288,-31.739 0.079,-63.251 7.758,-94.134c0.483,0.229 0.892,0.583 1.379,0.804c13.679,6.263 31.08,8.625 48.313,6.975c-11.575,29.908 -22.779,59.876 -44.117,84.775Zm-1.254,47.546c-4.2,-7.134 -6.971,-15.388 -8.879,-23.842c30.333,-22.824 55.054,-70.963 62.446,-109.916c9.837,-1.696 19.295,-4.63 27.866,-9.025c-4.266,13.971 -8.55,27.995 -12.795,41.895c-7.576,24.838 -15.121,49.555 -22.621,74.151c-2.725,9.537 -5.25,19.016 -7.867,28.549c-8.775,20.163 -27.4,16.463 -38.15,-1.812Zm64.337,171.154c-8.691,7.83 -18.158,13.951 -28.899,16.959c1.962,-12.679 4.312,-25.364 5.299,-38.005c0.175,-2.262 -0.47,-3.978 -1.466,-5.35c6.721,-29.375 13.637,-58.854 21.062,-88.491c3.167,-13.005 6.384,-26.146 9.529,-39.238c4.692,12.466 11.042,23.913 18.917,33.421c-12.667,35.005 -27.979,81.804 -24.442,120.704Zm-134.233,-164.108c0.754,-8.538 1.504,-17.046 2.258,-25.605c12.801,10.026 31.7,10.584 50.134,0.288c2.683,10.012 6.379,19.516 12.233,27.679c11.196,15.617 26.633,19.759 37.771,12.921c-2.258,8.296 -4.579,16.65 -6.863,24.904c-0.583,2.133 -1.154,4.234 -1.737,6.363c-21.979,25.466 -53.362,43.546 -75.042,16.812c-15.354,-18.937 -15.758,-41.225 -18.754,-63.362Zm58.979,370.275c2.059,-10.584 4.088,-21.042 6.175,-31.833c6.755,-30.918 13.496,-62.25 20.304,-93.75c0.417,1.125 1.042,2.166 1.509,3.292c2.458,30.332 9.754,59.957 24.162,83.499c-14.487,16.75 -30.837,31.167 -52.15,38.792Zm40.825,-102.542c4.85,5.042 10.53,9.541 17.634,13.042c8.846,4.333 18.375,6.083 28,5.834c-9.904,13.249 -19.542,27.083 -30.034,39.832c-9,-17.5 -13.621,-37.583 -15.6,-58.708Zm41.742,95.75c-4.167,5.917 -8.713,11.791 -13.975,17.625c-19.058,21.042 -50.088,53.833 -78.033,37.833c2.571,-13.208 5.154,-26.583 7.72,-39.791c23.959,-7.75 42.038,-23.417 57.084,-42.376c7.287,10.626 16.375,19.626 27.204,26.709Zm-95.438,-236.808c0.08,-0.8 -1.17,-0.93 -1.375,-0.184c-0.441,1.626 -0.937,3.234 -1.387,4.858c-16.167,5.151 -32.562,2.363 -42.037,-16.22c-4.821,-9.45 -7.28,-19.167 -8.909,-28.991c0.842,-9.58 1.683,-19.088 2.534,-28.696c7.404,14.403 17.762,25.925 31.229,30.058c24.579,7.546 44.925,-0.026 60.454,-14.691c-3.283,12.015 -6.584,24.082 -9.85,36.037c-5.071,5.52 -10.638,10.566 -17.025,14.667c-4.559,2.92 -9.371,5.266 -14.221,7.025c0.15,-1.255 0.467,-2.626 0.587,-3.863Zm221.384,-610.659c-25.934,20.813 -67.933,27.972 -97.804,25.763c-43.325,-3.196 -77.159,-27.283 -96.084,-62.042c38.534,3.505 85.521,-12.021 116.275,-22.346c12.4,-4.163 24.05,-10 35.284,-16.604c21.341,11.588 44.758,17.526 67.312,10.721c-8.375,21.504 -16.875,43.021 -24.983,64.508Zm170.146,-59.291c9.162,7.579 18.97,12.812 29.204,16.088c-24.279,18.795 -45.396,40.541 -74.496,54.461c-8.787,4.201 -19.325,9.405 -30.358,13.989c-0.692,-5.984 -1.184,-11.884 -1.25,-17.513c-0.63,-51.416 12.325,-97.296 31.879,-143.405c6.15,28.88 19.571,55.318 45.021,76.38Zm-48.792,-105.797c-12.446,-0.22 -24.7,-2.074 -36.396,-6.695c18.246,-45.7 37.15,-91.341 57.071,-136.829c-0.9,4.525 -1.846,9.087 -2.904,13.696c-6.313,27.538 -13.213,55.233 -16.367,83.358c-1.758,15.691 -2.229,31.25 -1.404,46.47Zm-278.588,-107.274c95.805,2.034 180.784,-35.6 232.163,-120.575c38.183,-2.483 76.425,-13.333 104.75,-36.084c-7.571,16.513 -15.146,33.038 -22.704,49.513c-21.213,46.625 -41.434,93.354 -61.196,140.104c-27.279,35.522 -84.871,39.85 -127.362,38.462c-30.163,-0.982 -62.101,-7.558 -87.171,-25.42c-18.871,-13.446 -30.092,-28.538 -38.48,-46Zm62.117,133.404c0.117,-0.179 -0.129,-0.325 -0.275,-0.212c-1.2,0.954 -2.471,1.925 -3.721,2.891c-20.541,-27.121 -37.825,-59.187 -50.929,-90.542c32.104,27.571 78.763,42.051 118.459,41.146c31.27,-0.708 84.379,-4.687 115.941,-26.695c-19.658,47.133 -38.458,94.266 -56.866,141.383c-22.23,4.821 -43.142,1.046 -62.571,-8.404c42.35,-27.196 76.071,-69.517 100.875,-111.475c0.521,-0.88 -0.809,-1.637 -1.359,-0.792c-26.896,41.338 -63.387,83.138 -108.175,107.746c-20.058,-11.804 -38.229,-29.967 -54.446,-51.154c1.009,-1.317 2.163,-2.45 3.067,-3.892Zm414.488,-248.983c0.971,0.9 1.904,1.9 2.887,2.767c19.546,17.158 41.083,27.354 63.588,32.624c-20.596,31.95 -44.288,63.5 -71.609,91.104c-11.937,-38.882 -10.912,-92.295 5.134,-126.495Zm-12.405,133.737c-17.554,16.859 -36.516,32.067 -57.17,44.551c-31.734,19.183 -72.805,39.824 -112.98,43.841c-1.458,-26.204 2.188,-53.266 7.567,-79.667c9.538,-46.816 13.496,-98.879 34.242,-142.108c0.666,-1.388 0.496,-2.65 0.279,-3.863c8.85,-19.058 17.696,-38.116 26.575,-57.228c5.683,-12.651 11.95,-25.038 18.221,-37.434l4.525,-8.975c-11.921,76.667 -12.175,157.204 -9.629,232.959c0.058,1.682 2.625,1.695 2.62,-0c-0.158,-87.592 19.321,-170.122 33.48,-255.075c0.575,4.295 1.408,8.595 2.262,12.887c-0.212,0.554 -0.679,0.945 -0.683,1.608c-0.246,27.871 0.154,56.113 2.271,83.925c0.054,0.679 0.983,0.667 1.05,-0c1.662,-16.17 5.625,-32.662 7.737,-49.154c10.042,26.471 24.75,50.992 42.204,70.088c-15.687,24.341 -13.262,64.537 -11.333,90.804c1.262,17.216 2.95,35.971 8.762,52.841Zm-219.141,282.129c-22.7,8.651 -46.383,13.146 -61.021,0.083c-0.183,-6.262 -0.275,-12.516 -0.529,-18.791c-0.188,-4.604 -5.067,-5.775 -7.921,-3.77c19.675,-55.938 40.621,-111.88 62.771,-167.73c11.4,4.938 23.616,7.304 36.183,7.88c-23.621,56.87 -37.196,120.875 -29.483,182.328Zm-409.434,145.871c-0.933,1.788 -2.029,3.55 -3,5.347c-2.158,-10.401 -3.904,-20.855 -4.25,-31.805c-0.375,-11.704 -0.412,-23.437 -0.633,-35.154c9.934,3.45 19.488,3.479 28.3,0.509c-5.796,20.695 -10.308,41.736 -20.417,61.103Zm23.684,-62.538c9.466,-4.028 18.067,-11.149 25.266,-20.708c2.471,-3.274 4.817,-6.87 7.159,-10.458c-1.784,12.112 -3.7,24.292 -5.45,36.388c-5.533,43.412 -10.992,86.216 -16.471,129.2c-4.137,1.875 -8.754,1.249 -13.946,-4.784c-8.937,-10.387 -14.796,-23.475 -17.721,-36.829c-1.275,-5.838 -2.6,-11.583 -3.883,-17.32c11.775,-23.93 17.521,-49.875 25.046,-75.489Zm64.991,-390.078c0.138,-0.434 -0.541,-0.617 -0.675,-0.188c-1.625,5.15 -2.829,10.451 -4.041,15.746c-19.625,12.675 -42.808,12.483 -68.679,-13.463c-3.096,-3.099 -5.759,-6.437 -8.488,-9.733c25.125,-26.642 43.963,-60.987 56.454,-93.046c31.505,-0.108 59.709,-18.887 79.788,-44.846l-1.142,5.963c-7.725,37.821 -15.062,75.704 -22.137,113.604c-9.725,17.005 -21.5,31.97 -34.959,40.967c1.163,-5.051 2.33,-10.092 3.879,-15.004Zm109.334,-405.992c-0.075,0.324 -0.15,0.654 -0.221,0.98c-37.029,42.02 -120.229,47.745 -166.629,23.112c-34.629,-18.388 -50.084,-44.188 -61.85,-74.255c39.141,31.109 93.241,46.43 141.087,45.159c27.975,-0.741 68.596,-5.625 93.746,-23.479c-2.046,9.496 -4.087,18.979 -6.133,28.483Zm17.787,3.737c1.813,-9.196 3.621,-18.37 5.429,-27.558c0.417,-1.708 0.755,-3.421 1.013,-5.154c2.212,-11.233 4.425,-22.475 6.637,-33.692l6.526,-33.146c2.241,-11.02 4.958,-21.933 7.412,-32.895c0.5,-2.121 0.996,-4.226 1.496,-6.343c0.366,98.014 -2.188,196.659 0.421,294.776c0.008,0.342 0.512,0.338 0.525,-0c3.116,-85.055 10.929,-170.642 14.937,-255.713c1.938,7.683 4.192,15.197 6.563,22.642c-5.554,89.921 1.57,182.071 17.671,270.133c0.529,2.893 5.516,2.238 5.149,-0.695c-9.737,-77.837 -6.587,-156.008 -9.02,-233.963c21.504,46.608 55.175,85.517 109.575,108.808c72.533,31.055 158.687,24.217 216.266,-28.654c-6.496,12.287 -13.004,24.588 -19.495,36.863c-6.805,13.866 -13.592,27.7 -20.384,41.546c-1.687,1.153 -3.125,2.883 -3.837,5.612c-0.359,1.362 -0.6,2.775 -0.946,4.141c-3.921,7.997 -7.854,16.009 -11.771,23.996c-12.1,25.151 -25.25,49.751 -36.654,75.134c-0.292,0.641 -0.588,1.279 -0.879,1.921c-31.9,26.458 -69.125,42.317 -108.959,46.746c-0.646,-1.213 -2.529,-1.684 -3.637,-0.217c-0.142,0.187 -0.292,0.371 -0.433,0.563c-23.23,2.103 -47.221,0.708 -71.659,-5.397c-77.512,-19.349 -134.975,-71.37 -133.816,-154.345c7.3,-38.409 14.595,-76.8 21.87,-115.109Zm-190.725,-262.383c28.067,17.18 60.442,29.084 94.896,34.984c56.333,9.645 111.35,-8.713 141.988,-50.376c-0.888,3.692 -1.863,7.313 -2.746,11.005c-10.554,43.458 -21.146,87.087 -31.771,130.841c-2.658,10.942 -5.575,21.829 -8.021,32.834l-3.962,18.383c-66.334,26.705 -137.029,-25.392 -162.784,-83.996c-8.062,-18.35 -16.691,-36.704 -25.096,-55.187c0.98,-13.104 0.675,-26.009 -2.504,-38.488Zm371.863,-248.666c-18.138,-2.717 -36.013,-6.688 -53.371,-12.426c16.862,-56.403 34.771,-111.691 53.046,-166.446c1.558,59.809 3.204,119.122 0.325,178.872Zm9.908,63.337c2.038,-17.196 3.463,-34.291 4.65,-51.354c16.15,1.637 32.4,2.504 48.725,2.15c-4.241,30.75 -6.037,61.899 -6.692,90.559c-1.395,61.278 2.334,128.028 39.384,179.47c35.433,49.2 104.833,49.721 158.7,38.892c40.15,-8.071 76.242,-23.342 106.646,-46l-8.529,14.112l-21.842,36.18l-20.725,36.824c-6.959,12.363 -13.909,24.708 -20.863,37.063c-60.85,47.028 -132.579,68.162 -213.004,64.42c-80.704,-3.753 -179.046,-27.016 -207.554,-103.295c-1.546,-8.384 -3.058,-16.85 -4.596,-25.43c-0.321,-1.795 -1.316,-3.024 -2.579,-3.849c-0.667,-5.596 -0.862,-11.526 -0.875,-17.575c5.317,-22.571 10.654,-45.213 15.954,-67.692c20.05,-84.879 42.684,-168.375 67.004,-250.338c18.234,5.992 36.88,10.104 55.734,12.826c-1.013,17.629 -2.3,35.287 -4.3,53.037c-11.763,104.237 -29.617,207.558 -24.788,312.771c0.046,1.021 1.504,1.008 1.571,-0c7.321,-104.921 25.617,-208.437 37.979,-312.771Zm7.05,-277.967c5.113,42.117 19.067,83.471 39.421,114.992c7.533,11.663 16.183,23.146 25.292,34.475c-7.621,21.742 -13.046,45.217 -16.809,69.242c-16.687,0.383 -33.25,-0.517 -49.65,-2.246c4.409,-72.254 2.584,-143.726 1.746,-216.463Zm106.588,-400.525c-14.292,37.571 -28.759,75.6 -43.379,114.042c-3.638,9.608 -7.288,19.245 -10.946,28.908c-3.279,9.796 -6.567,19.621 -9.863,29.467c-0.221,0.67 -0.45,1.346 -0.671,2.016c-36.1,34.18 -78.554,63.693 -131.316,57.558c-47.859,-5.566 -102.571,-28.479 -138.175,-61.983c-42.975,-40.441 -59.413,-94.516 -87.975,-142.774c57.795,30.933 123.662,46.929 189.3,45.116c82.529,-2.275 171.966,-30.491 237.641,-84.196c-1.541,3.95 -3.071,7.884 -4.616,11.846Zm35.766,225.934c20.1,24.02 45.042,42.879 72.184,58.412c-6.134,8.542 -9.838,19.987 -15.071,28.517c-12.346,20.108 -27.042,43.303 -47.725,55.984c-30.042,18.416 -68.942,13.866 -92.558,-13.126c-16.642,-19.025 -21.809,-38.504 -27.225,-60.662c6.662,-17.658 13.312,-35.271 19.924,-52.78c7.346,-19.496 14.663,-38.896 21.942,-58.195c3.638,-9.647 7.263,-19.271 10.883,-28.867c3.996,-9.45 7.98,-18.871 11.946,-28.271c1.834,-4.262 3.588,-8.483 5.4,-12.737c3.259,41.704 16.88,83.729 40.3,111.725Zm204.304,-703.875c-4.645,7.246 -9.245,14.417 -13.941,21.737c-8.733,15.15 -17.559,30.45 -26.467,45.9c-8.871,15.466 -17.829,31.083 -26.866,46.838c-8.838,15.857 -18.659,31.395 -26.713,48.012c-16.704,32.941 -33.688,66.434 -50.942,100.446c-4.287,8.517 -8.591,17.063 -12.912,25.637c-1.742,3.871 -3.5,7.775 -5.254,11.659c-83.646,65.824 -196.188,52.066 -300.505,2.242c-37.124,-17.734 -71.02,-38.73 -102.258,-62.293c43.058,-33.661 81.904,-73.608 103.546,-117.891c18.033,1.058 36.046,1.671 53.913,1.425c135.366,-1.875 295.6,-36.275 408.399,-123.712Zm-472.924,121.649c-30.596,40.08 -65.78,77.393 -105.025,109.409c-63.151,-50.421 -113.43,-113.184 -148.971,-188.729c11.004,8.117 22.379,15.379 33.983,21.316c67.571,34.596 143.813,52.392 220.013,58.004Zm-376.813,2625.38l0.292,671.571l4.112,1343.17c0.034,11.958 9.771,21.624 21.738,21.583c11.841,-0 21.437,-9.542 21.604,-21.334l-0,-0.249l1.662,-123.417l0.829,-61.709c0.359,-20.583 1.913,-41.083 2.813,-61.625l6.312,-123.291c0.384,-10.292 1.209,-20.542 2.217,-30.75l2.754,-30.75l5.509,-61.459l5.5,-61.5l1.379,-15.374l1.966,-15.292l3.93,-30.625l15.516,-122.459c1.129,-10.249 2.805,-20.416 4.529,-30.541l5.026,-30.459l10.054,-60.916l10.054,-60.917c3.571,-20.292 8.108,-40.375 12.116,-60.542l24.846,-120.999l29.446,-120c0.421,-1.626 0.8,-3.292 1.213,-4.959c5.695,-7.334 11.316,-15.166 16.858,-24.249c40.5,-66.418 69.787,-139.293 97.238,-211.918c31.958,-84.541 59.666,-170.791 81.408,-258.541c15.546,-62.792 25.962,-126.609 40.187,-189.604c1.642,-3.654 3.142,-7.367 4.884,-10.975c15.379,-34.747 31.395,-69.192 47.754,-103.475c16.787,-12.633 26.387,-36.876 31.721,-64.367c41.475,-83.279 85.608,-165.221 131.708,-246.042c-16.342,118.679 -15.729,235.821 -20.446,356.617c-5.796,148.404 -29.629,295.679 -29.946,444.346c0,0.458 0.667,0.458 0.7,-0c11.575,-148.375 38.567,-295.613 45.479,-444.346c3.325,-71.617 1.117,-143.737 8.459,-215.146c6.333,-61.579 20.066,-123.216 20.896,-185.225l22.416,-37.371c-20.833,92.234 -8.596,190.15 -3.625,283.438c0.079,1.458 2.213,1.466 2.275,-0c4.184,-102.342 -2.571,-205.529 23.405,-305.575c1.054,-4.063 -0.821,-7.075 -3.575,-8.671l12.191,-20.333c21.892,-34.951 44.821,-69.25 67.179,-103.908c22.017,-34.888 46.034,-68.434 69.605,-102.276c23.637,-33.8 46.854,-67.895 71.966,-100.628c27.279,-37.196 55.304,-73.835 83.75,-110.138c-3.442,109.85 -11.716,219.37 -17.421,329.12c-0.15,2.934 4.388,2.913 4.546,0c6.308,-115.562 26.471,-230.129 26.396,-346.016c69.262,-87.534 141.471,-172.725 216.425,-255.359c17.3,-19.108 34.958,-37.896 52.512,-56.775c-3.9,73.475 -25.058,145.117 -24.179,218.959c0.917,77.063 6.009,153.883 10.613,230.787c9.629,160.713 10.508,321.821 0.683,482.55c-0.046,0.801 1.142,0.767 1.225,-0c18.225,-167.416 21.842,-335.403 13.021,-503.533c-3.983,-75.879 -13.017,-154.88 -6.592,-230.783c6.221,-73.505 26.571,-145.275 24.934,-219.284c19.845,-21.12 40.066,-41.874 60.275,-62.637c-25.275,163.708 -39.984,333.571 -31.229,498.717c0.033,0.67 1.066,0.678 1.045,-0c-4.412,-173.438 30.8,-341.054 43.825,-512.892c29.955,-30.554 60.188,-60.825 90.788,-90.726c-0.729,21.235 -0.8,42.617 -0.071,63.721c0.087,2.596 3.892,2.584 4.021,0c1.179,-24.058 4.983,-48.386 4.95,-72.533c4.358,-4.237 8.587,-8.6 12.958,-12.824c2.717,96.566 12.992,192.016 9.125,289.037c-3.917,98.288 -12.95,196.229 -20.741,294.258c-0.296,3.742 5.383,3.634 5.77,0c11.184,-104.829 22.659,-209.925 25.892,-315.37c2.871,-93.551 -7.025,-185.667 -8.779,-278.909c25.662,-24.65 51.525,-49.095 77.708,-73.196c82.121,-76 166.396,-149.617 252.329,-221.229c-4.937,69.458 -6.254,139.362 -12.975,208.933c-0.295,3.03 4.429,3.004 4.721,0c6.846,-70.891 21.075,-146.292 19.238,-218.162c37.037,-30.729 74.308,-61.179 111.996,-91.1c129.283,-102.146 261.995,-199.876 397.579,-293.446c7.262,-5.029 14.633,-9.901 21.912,-14.9c10.475,146.467 35.954,291.821 46.371,438.575c0.096,1.342 2.187,1.354 2.1,-0c-9.792,-146.887 -35.3,-294.663 -42.787,-442.442c126.708,-86.858 256.02,-169.917 387.354,-249.688c135.545,-81.841 273.658,-159.429 413.529,-233.729c1.162,200.225 -18.929,402.388 -40.884,601.155c-22.554,204.212 -77.883,404.554 -87.012,610.041c-0.054,1.242 1.863,1.23 1.925,0c10.896,-212.054 76.433,-419.562 98.896,-630.924c11.096,-104.397 17.541,-209.159 27.854,-313.605c8.963,-90.766 18.333,-183.721 15.271,-275.287c0.346,-0.184 0.683,-0.367 1.029,-0.55c12.679,-6.717 25.475,-13.221 38.187,-19.871c36.317,119.617 -70.5,240.541 -32.32,362.175c0.47,1.5 2.783,0.879 2.362,-0.65c-33.162,-120.383 85.388,-250.475 41.246,-367.4c129.704,-67.608 261.046,-132.121 393.879,-193.463c149.584,-69.437 301.125,-134.716 454.25,-196.17c153.042,-61.647 307.709,-119.233 463.708,-173.167c78.084,-26.805 156.501,-52.571 235.375,-76.962c78.917,-24.167 158,-48.084 237.917,-68.73c1.292,-0.32 2.084,-1.642 1.75,-2.946c-0.291,-1.283 -1.583,-2.075 -2.875,-1.799c-80.708,18.183 -160.75,39.058 -240.292,61.587c-79.625,22.458 -158.791,46.317 -237.666,71.225c-78.875,24.925 -157.375,51.058 -235.458,78.429c-78.001,27.533 -155.75,55.859 -233.042,85.463c-154.625,58.933 -307.459,122.75 -458.625,190.253c-47.167,21.188 -94.125,42.943 -140.959,64.959c-1.041,-1.487 -2.999,-2.437 -4.833,-1.413c-126.929,70.092 -294.008,57.675 -414.837,-23.345c-68.925,-46.217 -218.992,-166.433 -155.871,-261.38c3.125,-1.332 6.287,-2.678 9.4,-4.008c8.983,-3.633 17.908,-7.246 26.779,-10.833c70.821,-29.058 138.796,-54.696 203.092,-77.692c64.316,-22.963 125.212,-42.446 181.708,-59.892c56.633,-16.971 108.95,-31.616 156.396,-44.262c94.912,-25.029 170.458,-41.008 222.208,-50.729c51.667,-10.009 79.5,-13.567 79.5,-13.567c1.334,-0.171 2.25,-1.392 2.083,-2.729c-0.166,-1.287 -1.291,-2.208 -2.583,-2.12c-0,-0 -28.208,2.058 -80.541,9.266c-52.334,7.216 -128.792,20.092 -225.25,40.975c-96.438,20.904 -212.459,51.487 -343.588,93.158c-65.413,21.242 -134.975,44.288 -206.958,72.242c-9.03,3.413 -18.117,6.846 -27.263,10.304c-9.079,3.625 -18.212,7.275 -27.404,10.946c-18.371,7.38 -36.963,14.85 -55.779,22.408c-37.317,15.842 -75.738,31.559 -114.263,49.233c-119.808,53.505 -244.858,116.514 -372.066,189.426c-199.938,70.8 -411.342,107.7 -623.267,62.896c-113.433,-23.984 -233.692,-67.484 -307.358,-162.275c-32.592,-41.943 -56.046,-91.438 -63.271,-144.413c-8.388,-61.5 3.437,-112.933 19.121,-170.967c39.55,-25.829 74.095,-44.158 100.783,-56.133c9.704,-4.092 18.242,-7.896 25.712,-10.867c7.571,-2.717 13.938,-4.999 19.067,-6.837c5.179,-1.559 9.104,-2.738 11.738,-3.525c2.712,-0.68 4.091,-1.021 4.091,-1.021l0.038,-0.013c1.308,-0.32 2.104,-1.646 1.779,-2.95c-0.308,-1.245 -1.533,-2.028 -2.779,-1.817c-0,0 -1.396,0.238 -4.15,0.709c-2.775,0.609 -6.917,1.521 -12.371,2.721c-5.354,1.475 -11.996,3.313 -19.896,5.492c-7.804,2.441 -16.721,5.633 -26.916,9.066c-40.221,14.858 -97.684,41.85 -164.084,86.967c-4.196,2.75 -8.454,5.537 -12.766,8.362c-4.292,2.851 -8.35,6.117 -12.617,9.218c-8.454,6.328 -17.121,12.812 -25.992,19.449c-18.091,12.904 -35.475,28.221 -53.883,43.892c-9.188,7.866 -18.567,15.891 -28.125,24.071c-9.071,8.7 -18.313,17.562 -27.725,26.591c-9.383,9.075 -18.933,18.317 -28.646,27.717c-4.958,4.616 -9.646,9.55 -14.221,14.667c-4.646,5.054 -9.333,10.15 -14.054,15.287c-9.446,10.279 -19.05,20.725 -28.796,31.329c-4.879,5.309 -9.787,10.654 -14.737,16.042c-4.892,5.438 -9.371,11.271 -14.13,16.954c-18.829,22.887 -38.158,46.504 -57.77,70.929c-18.371,25.322 -37.23,51.296 -56.525,77.884c-4.788,6.674 -9.759,13.291 -14.479,20.12c-4.521,6.963 -9.067,13.963 -13.638,21c-5.713,8.825 -11.538,17.812 -17.325,26.759c-110.129,93.679 -254.471,139.6 -401.112,143.441c-25.751,0.675 -51.826,0.242 -77.892,-1.316c0.637,-1.746 1.433,-3.454 2.016,-5.209c0.601,-1.791 -1.908,-2.596 -2.875,-1.212c-1.437,2.049 -2.987,4.037 -4.45,6.075c-59.591,-3.971 -119.024,-14.625 -174.258,-36.379c-102.604,-40.421 -162.975,-113.013 -181.208,-219.983l-1.459,-122.463l-4.47,-335.787c-0.021,-1.351 -1.13,-2.425 -2.475,-2.409c-1.321,0.021 -2.384,1.092 -2.404,2.409l-4.48,335.787l-3.991,335.788l-5.867,671.579l-1.463,167.891l-0.908,167.896l-1.787,335.792l-3.504,671.575l-1.638,671.579Z" style="fill:#fff;fill-rule:nonzero;"/></svg>